# Blender v2.79 (sub 7) OBJ File: 'de_road_signs.blend'
# www.blender.org
mtllib de_info_3_road_sign_LOD.mtl
o information_3_lod_de_info_3_road_sign_LOD
v -0.566998 2.230379 -0.018582
v -0.603138 2.200877 -0.018582
v 0.565393 2.900804 0.026593
v 0.565393 2.900804 -0.018582
v -0.566998 2.900804 -0.018582
v 0.601533 2.932230 0.026593
v -0.603138 2.932230 0.026593
v 0.601533 2.200877 -0.018582
v -0.566998 2.900804 0.026593
v 0.538723 2.878422 -0.003651
v 0.543812 2.873596 0.011602
v -0.542846 2.255419 0.011602
v -0.542593 2.874875 0.011416
v 0.019083 2.200945 -0.007172
v 0.019083 2.200945 0.015234
v -0.019130 -0.499055 0.015234
v -0.019130 2.200945 0.015234
v -0.019130 -0.499055 -0.007172
v -0.019130 2.200945 -0.007172
v -0.566998 2.230379 0.026593
v -0.603138 2.200877 0.026593
v 0.601533 2.200877 0.026593
v -0.603138 2.932230 -0.018582
v 0.601533 2.932230 -0.018582
v 0.565393 2.230379 -0.018582
v 0.565393 2.230379 0.026593
v 0.541166 2.251384 0.011602
v 0.544958 2.254979 -0.003651
v -0.544262 2.253791 -0.003651
v -0.541161 2.873533 -0.003708
v -0.000024 -0.499055 -0.018376
v -0.000024 2.200945 -0.018376
v 0.019083 -0.499055 -0.007172
v 0.019083 -0.499055 0.015234
v -0.000024 -0.499055 0.026438
v -0.000024 2.200945 0.026438
vt 0.017208 0.012107
vt 0.023492 0.012107
vt 0.023492 0.252634
vt 0.017208 0.252634
vt 0.028622 0.019323
vt 0.028622 0.245418
vt 0.184158 0.208841
vt 0.178543 0.208841
vt 0.178543 0.006815
vt 0.184158 0.006815
vt 0.195388 0.246032
vt 0.189773 0.246032
vt 0.189773 0.126423
vt 0.195388 0.126423
vt 0.198032 0.411907
vt 0.004355 0.411907
vt 0.010165 0.407506
vt 0.192222 0.407506
vt 0.150663 0.012107
vt 0.150663 0.252634
vt 0.145198 0.245418
vt 0.145198 0.019323
vt 0.172928 0.221736
vt 0.167312 0.221736
vt 0.167312 0.006815
vt 0.172928 0.006815
vt 0.189773 0.006815
vt 0.189773 0.137293
vt 0.184158 0.137293
vt 0.184158 0.006815
vt 0.184158 0.267772
vt 0.184158 0.137293
vt 0.189773 0.137293
vt 0.189773 0.267772
vt 0.178543 0.208841
vt 0.172928 0.208841
vt 0.172928 0.006815
vt 0.178543 0.006815
vt 0.004355 0.309506
vt 0.010165 0.313637
vt 0.192222 0.313637
vt 0.198032 0.309506
vt 0.189773 0.126423
vt 0.189773 0.006815
vt 0.195388 0.006815
vt 0.195388 0.126423
vt 0.304994 0.308829
vt 0.890915 0.308829
vt 0.890915 0.691171
vt 0.304994 0.691171
vt 0.890915 0.308829
vt 0.890915 0.691171
vt 0.304994 0.691171
vt 0.304994 0.308829
vt 0.193115 0.175430
vt 0.193115 0.281446
vt 0.188532 0.281446
vt 0.188532 0.174241
vt 0.198074 0.015800
vt 0.198298 0.187281
vt 0.193749 0.186867
vt 0.193475 0.015640
vt 0.193115 0.012081
vt 0.188532 0.012081
vt 0.193115 0.187338
vt 0.197699 0.187281
vt 0.197699 0.293091
vt 0.193115 0.293091
vt 0.044027 0.001486
vt 0.043859 0.488171
vt 0.035364 0.488216
vt 0.035532 0.001530
vt 0.026870 0.488259
vt 0.027038 0.001574
vt 0.018376 0.488303
vt 0.018544 0.001618
vt 0.069510 0.001354
vt 0.069342 0.488039
vt 0.060847 0.488084
vt 0.061015 0.001398
vt 0.052353 0.488127
vt 0.052521 0.001442
vn 0.0000 -1.0000 -0.0000
vn -0.0000 -0.0000 -1.0000
vn 0.0000 1.0000 0.0000
vn 1.0000 0.0000 0.0000
vn 0.0000 -0.0000 1.0000
vn -1.0000 0.0000 -0.0000
vn -0.0001 0.0001 1.0000
vn 0.8016 -0.5935 -0.0720
vn 0.5612 0.8246 0.0711
vn 0.8273 0.5610 0.0296
vn 0.5958 -0.7994 -0.0767
vn -0.7083 0.7014 0.0798
vn -0.7055 0.7042 0.0802
vn -0.7051 -0.7076 -0.0464
vn -0.7115 -0.7012 -0.0460
vn 0.8677 0.0000 -0.4971
vn 0.8677 0.0000 0.4971
vn -0.8677 0.0000 0.4971
vn -0.8677 0.0000 -0.4971
usemtl Road_Sign_LOD_(Information_3)
s off
f 21/1/1 2/2/1 8/3/1 22/4/1
f 1/5/2 25/6/2 8/3/2 2/2/2
f 1/7/3 20/8/3 26/9/3 25/10/3
f 5/11/4 9/12/4 20/13/4 1/14/4
f 6/15/5 7/16/5 9/17/5 3/18/5
f 23/19/2 24/20/2 4/21/2 5/22/2
f 23/23/3 7/24/3 6/25/3 24/26/3
f 5/22/2 1/5/2 2/2/2 23/19/2
f 8/27/4 24/28/4 6/29/4 22/30/4
f 23/31/6 2/32/6 21/33/6 7/34/6
f 9/35/1 5/36/1 4/37/1 3/38/1
f 4/21/2 24/20/2 8/3/2 25/6/2
f 9/17/5 7/16/5 21/39/5 20/40/5
f 3/18/5 26/41/5 22/42/5 6/15/5
f 4/43/6 25/44/6 26/45/6 3/46/6
f 28/47/2 29/48/2 30/49/2 10/50/2
f 27/51/7 11/52/7 13/53/7 12/54/7
f 26/41/5 20/40/5 21/39/5 22/42/5
s 1
f 28/55/8 10/56/9 11/57/10 27/58/11
f 13/59/12 11/60/10 10/61/9 30/62/13
f 29/63/14 28/55/8 27/58/11 12/64/15
f 13/65/12 30/66/13 29/67/14 12/68/15
usemtl Road_Sign_LOD_(Information)
f 31/69/2 32/70/2 14/71/16 33/72/16
f 33/72/16 14/71/16 15/73/17 34/74/17
f 34/74/17 15/73/17 36/75/5 35/76/5
f 35/77/5 36/78/5 17/79/18 16/80/18
f 16/80/18 17/79/18 19/81/19 18/82/19
f 18/82/19 19/81/19 32/70/2 31/69/2
