# Blender v2.79 (sub 7) OBJ File: 'de_road_signs.blend'
# www.blender.org
mtllib de_info_2_road_sign.mtl
o information_2_de_info_2_road_sign
v 0.224851 2.949879 0.021820
v 0.250755 2.923980 0.021820
v 0.237785 2.946419 0.021820
v 0.247294 2.936911 0.021820
v 0.224851 2.200727 0.021820
v 0.250755 2.226632 0.021820
v 0.237785 2.204188 0.021820
v 0.247294 2.213696 0.021820
v 0.224851 2.949879 0.006168
v 0.250755 2.923976 0.006168
v 0.237785 2.946419 0.006168
v 0.247294 2.936911 0.006168
v 0.224851 2.200728 0.006168
v 0.250755 2.226632 0.006168
v 0.237785 2.204188 0.006168
v 0.247294 2.213696 0.006168
v -0.224851 2.949879 0.021820
v -0.250755 2.923976 0.021820
v -0.237786 2.946419 0.021820
v -0.247294 2.936911 0.021820
v -0.224851 2.200728 0.021820
v -0.250755 2.226632 0.021820
v -0.237786 2.204188 0.021820
v -0.247295 2.213696 0.021820
v -0.224851 2.949879 0.006168
v -0.250755 2.923976 0.006168
v -0.237786 2.946419 0.006168
v -0.247295 2.936911 0.006168
v -0.224851 2.200728 0.006168
v -0.250755 2.226632 0.006168
v -0.237786 2.204188 0.006168
v -0.247294 2.213696 0.006168
v 0.000000 -0.500001 -0.060915
v 0.000000 2.689261 -0.060915
v 0.013203 -0.500001 -0.058289
v 0.013203 2.689261 -0.058289
v 0.024396 -0.500001 -0.050810
v 0.024396 2.689261 -0.050810
v 0.031875 -0.500001 -0.039617
v 0.031875 2.689261 -0.039617
v 0.034501 -0.500001 -0.026414
v 0.034501 2.689261 -0.026415
v 0.031875 -0.500001 -0.013211
v 0.031875 2.689261 -0.013212
v 0.024396 -0.500001 -0.002018
v 0.024396 2.689261 -0.002019
v 0.013203 -0.500001 0.005460
v 0.013203 2.689261 0.005460
v 0.000000 -0.500001 0.008087
v 0.000000 2.689261 0.008086
v -0.013203 -0.500001 0.005460
v -0.013203 2.689261 0.005460
v -0.024396 -0.500001 -0.002018
v -0.024396 2.689261 -0.002019
v -0.031875 -0.500001 -0.013211
v -0.031875 2.689261 -0.013212
v -0.034501 -0.500001 -0.026414
v -0.034501 2.689261 -0.026415
v -0.031875 -0.500001 -0.039617
v -0.031875 2.689261 -0.039617
v -0.024396 -0.500001 -0.050810
v -0.024396 2.689261 -0.050810
v -0.013203 -0.500001 -0.058289
v -0.013203 2.689261 -0.058289
vt 0.409981 0.218227
vt 0.417355 0.210812
vt 0.427387 0.208113
vt 0.776152 0.208113
vt 0.786184 0.210812
vt 0.793558 0.218227
vt 0.796242 0.228314
vt 0.796242 0.772139
vt 0.793558 0.782227
vt 0.786184 0.789642
vt 0.776153 0.792340
vt 0.427387 0.792340
vt 0.417355 0.789642
vt 0.409981 0.782227
vt 0.407297 0.772139
vt 0.407297 0.228314
vt 0.175858 0.817400
vt 0.172722 0.821303
vt 0.168455 0.822724
vt 0.020116 0.822724
vt 0.015850 0.821303
vt 0.012713 0.817400
vt 0.011571 0.812090
vt 0.011571 0.525826
vt 0.012713 0.520516
vt 0.015849 0.516613
vt 0.020116 0.515192
vt 0.168455 0.515192
vt 0.172722 0.516612
vt 0.175858 0.520516
vt 0.177000 0.525826
vt 0.177000 0.812090
vt 0.191225 0.058174
vt 0.183879 0.061217
vt 0.175928 0.061217
vt 0.168582 0.058174
vt 0.162959 0.052552
vt 0.159916 0.045206
vt 0.159916 0.037254
vt 0.162959 0.029908
vt 0.168582 0.024286
vt 0.175928 0.021243
vt 0.183879 0.021243
vt 0.191225 0.024286
vt 0.196847 0.029908
vt 0.199890 0.037254
vt 0.199890 0.045206
vt 0.196847 0.052552
vt 0.192091 0.524405
vt 0.192091 0.810670
vt 0.184546 0.810670
vt 0.184546 0.524405
vt 0.184546 0.517942
vt 0.184546 0.648479
vt 0.177000 0.648479
vt 0.177000 0.517942
vt 0.177000 0.865936
vt 0.177000 0.663517
vt 0.184546 0.663517
vt 0.184546 0.865936
vt 0.192091 0.701350
vt 0.199637 0.701350
vt 0.199637 0.706833
vt 0.192091 0.706833
vt 0.199637 0.711409
vt 0.192091 0.711409
vt 0.184546 0.868686
vt 0.177000 0.868686
vt 0.184546 0.653238
vt 0.177000 0.653238
vt 0.184546 0.658758
vt 0.177000 0.658758
vt 0.199637 0.520134
vt 0.192091 0.520134
vt 0.192091 0.515192
vt 0.199637 0.515192
vt 0.184546 0.515192
vt 0.192091 0.519095
vt 0.184546 0.519095
vt 0.177000 0.515192
vt 0.184546 0.515192
vt 0.192091 0.819883
vt 0.184546 0.819883
vt 0.184546 0.815980
vt 0.192091 0.815980
vt 0.152313 0.015661
vt 0.152313 0.474169
vt 0.144310 0.474236
vt 0.144310 0.015727
vt 0.136308 0.474302
vt 0.136308 0.015794
vt 0.128306 0.474368
vt 0.128306 0.015860
vt 0.120304 0.474435
vt 0.120304 0.015927
vt 0.112302 0.474501
vt 0.112302 0.015993
vt 0.104300 0.474568
vt 0.104300 0.016060
vt 0.096298 0.474634
vt 0.096298 0.016126
vt 0.088295 0.474701
vt 0.088295 0.016192
vt 0.080293 0.474767
vt 0.080293 0.016259
vt 0.072291 0.474833
vt 0.072291 0.016325
vt 0.064289 0.474900
vt 0.064289 0.016391
vt 0.056287 0.474966
vt 0.056287 0.016458
vt 0.048285 0.475033
vt 0.048285 0.016524
vt 0.040283 0.475099
vt 0.040283 0.016591
vt 0.032281 0.475165
vt 0.032281 0.016657
vt 0.024278 0.475232
vt 0.024278 0.016723
vn 0.0000 0.0000 1.0000
vn 0.0000 0.0000 -1.0000
vn 0.0000 1.0000 0.0000
vn -0.9915 0.1303 0.0000
vn -0.9915 -0.1303 -0.0000
vn -0.1303 -0.9915 -0.0000
vn 0.1303 -0.9915 -0.0000
vn 0.9915 0.1304 -0.0000
vn 0.9915 -0.1303 -0.0000
vn 0.9915 0.1303 -0.0000
vn 0.1303 0.9915 0.0000
vn 0.4998 0.8661 -0.0000
vn 0.8661 0.4999 -0.0000
vn 0.4998 -0.8661 0.0000
vn 0.8661 -0.4998 0.0000
vn -0.1303 0.9915 0.0000
vn -0.4998 0.8661 0.0000
vn -0.8661 0.4998 0.0000
vn -0.4998 -0.8661 -0.0000
vn -0.8661 -0.4998 -0.0000
vn 0.3827 -0.0000 -0.9239
vn 0.7071 -0.0000 -0.7071
vn 0.9239 -0.0000 -0.3827
vn 1.0000 -0.0000 0.0000
vn 0.9239 0.0000 0.3827
vn 0.7071 0.0000 0.7071
vn 0.3827 0.0000 0.9239
vn -0.3827 0.0000 0.9239
vn -0.7071 0.0000 0.7071
vn -0.9239 0.0000 0.3827
vn -1.0000 -0.0000 -0.0000
vn -0.9239 -0.0000 -0.3827
vn -0.7071 -0.0000 -0.7071
vn -0.3827 -0.0000 -0.9239
usemtl Road_Sign_(Information_2)
s off
f 24/1/1 23/2/1 21/3/1 5/4/1 7/5/1 8/6/1 6/7/1 2/8/1 4/9/1 3/10/1 1/11/1 17/12/1 19/13/1 20/14/1 18/15/1 22/16/1
f 16/17/2 15/18/2 13/19/2 29/20/2 31/21/2 32/22/2 30/23/2 26/24/2 28/25/2 27/26/2 25/27/2 9/28/2 11/29/2 12/30/2 10/31/2 14/32/2
f 36/33/3 34/34/3 64/35/3 62/36/3 60/37/3 58/38/3 56/39/3 54/40/3 52/41/3 50/42/3 48/43/3 46/44/3 44/45/3 42/46/3 40/47/3 38/48/3
s 1
f 26/49/4 30/50/5 22/51/5 18/52/4
f 29/53/6 13/54/7 5/55/7 21/56/6
f 2/57/8 6/58/9 14/59/9 10/60/10
f 9/61/11 1/62/11 3/63/12 11/64/12
f 11/64/12 3/63/12 4/65/13 12/66/13
f 12/67/13 4/68/13 2/57/8 10/60/10
f 5/55/7 13/54/7 15/69/14 7/70/14
f 7/70/14 15/69/14 16/71/15 8/72/15
f 8/72/15 16/71/15 14/59/9 6/58/9
f 17/73/16 25/74/16 27/75/17 19/76/17
f 19/77/17 27/75/17 28/78/18 20/79/18
f 20/79/18 28/78/18 26/49/4 18/52/4
f 29/53/6 21/56/6 23/80/19 31/81/19
f 31/82/19 23/83/19 24/84/20 32/85/20
f 32/85/20 24/84/20 22/51/5 30/50/5
f 9/61/11 25/74/16 17/73/16 1/62/11
f 33/86/2 34/87/2 36/88/21 35/89/21
f 35/89/21 36/88/21 38/90/22 37/91/22
f 37/91/22 38/90/22 40/92/23 39/93/23
f 39/93/23 40/92/23 42/94/24 41/95/24
f 41/95/24 42/94/24 44/96/25 43/97/25
f 43/97/25 44/96/25 46/98/26 45/99/26
f 45/99/26 46/98/26 48/100/27 47/101/27
f 47/101/27 48/100/27 50/102/1 49/103/1
f 49/103/1 50/102/1 52/104/28 51/105/28
f 51/105/28 52/104/28 54/106/29 53/107/29
f 53/107/29 54/106/29 56/108/30 55/109/30
f 55/109/30 56/108/30 58/110/31 57/111/31
f 57/111/31 58/110/31 60/112/32 59/113/32
f 59/113/32 60/112/32 62/114/33 61/115/33
f 61/115/33 62/114/33 64/116/34 63/117/34
f 63/117/34 64/116/34 34/118/2 33/119/2
