# Blender v2.79 (sub 7) OBJ File: 'de_road_signs.blend'
# www.blender.org
mtllib de_info_3_road_sign.mtl
o information_3_de_info_3_road_sign
v 0.011244 2.119941 -0.011018
v -0.012849 2.119941 -0.011018
v 0.011244 2.140892 -0.011018
v 0.541299 2.225393 0.004041
v 0.565393 2.225393 -0.011018
v 0.541299 2.246345 0.004041
v 0.565393 2.246345 0.004041
v 0.565393 2.246345 -0.011018
v 0.601533 2.090439 0.026628
v 0.565393 2.535357 0.004041
v 0.541299 2.535357 0.004041
v 0.541299 2.535357 -0.011018
v 0.565393 2.558781 -0.011018
v 0.541299 2.558781 -0.011018
v 0.541299 2.558781 0.004041
v 0.565393 2.558781 0.004041
v -0.566998 2.566783 -0.011018
v -0.566998 2.545832 -0.011018
v -0.542904 2.545832 0.004041
v -0.566998 2.545832 0.004041
v -0.566998 2.225393 -0.011018
v -0.542904 2.246345 -0.011018
v -0.566998 2.246345 -0.011018
v -0.566998 2.246345 0.004041
v -0.542904 2.246345 0.004041
v -0.566998 2.225393 0.004041
v -0.542904 2.225393 -0.011018
v -0.352265 2.119941 -0.011018
v -0.328171 2.119941 -0.011018
v 0.331809 2.119941 -0.011018
v 0.011244 2.119941 0.004041
v 0.355903 2.119941 0.004041
v 0.565393 2.119941 0.026628
v -0.603138 2.090439 -0.018547
v -0.566998 2.790365 0.026628
v -0.328171 2.140892 -0.011018
v -0.352265 2.140892 -0.011018
v 0.565393 2.119941 -0.018547
v -0.566998 2.119941 -0.018547
v 0.565393 2.535357 -0.011018
v -0.566998 2.119941 0.026628
v 0.601533 2.090439 -0.018547
v -0.603138 2.090439 0.026628
v 0.355903 2.140892 -0.011018
v 0.355903 2.119941 -0.011018
v 0.541299 2.225393 -0.011018
v 0.541299 2.246345 -0.011018
v -0.542904 2.566783 -0.011018
v -0.542904 2.545832 -0.011018
v 0.355903 2.790365 -0.011018
v 0.355903 2.769415 -0.011018
v -0.012849 2.769415 -0.011018
v -0.352265 2.769415 -0.011018
v 0.331809 2.140892 0.004041
v -0.566998 2.566783 0.004041
v -0.542904 2.566783 0.004041
v -0.542904 2.225393 0.004041
v -0.352265 2.140892 0.004041
v -0.352265 2.119941 0.004041
v -0.328171 2.119941 0.004041
v -0.328171 2.140892 0.004041
v 0.355903 2.140892 0.004041
v 0.331809 2.140892 -0.011018
v -0.012849 2.140892 -0.011018
v -0.012849 2.140892 0.004041
v -0.012849 2.119941 0.004041
v 0.011244 2.140892 0.004041
v 0.331809 2.119941 0.004041
v 0.565393 2.225393 0.004041
v 0.601533 2.821792 -0.018547
v -0.603138 2.821792 0.026628
v -0.328171 2.769415 -0.011018
v -0.328171 2.769415 0.004041
v 0.331809 2.769415 -0.011018
v 0.011244 2.790365 0.004041
v -0.012849 2.790365 0.004041
v 0.601533 2.821792 0.026628
v -0.566998 2.790365 -0.018547
v 0.565393 2.790365 -0.018547
v 0.565393 2.790365 0.026628
v -0.603138 2.821792 -0.018547
v -0.352265 2.790365 -0.011018
v -0.328171 2.790365 0.004041
v -0.328171 2.790365 -0.011018
v -0.352265 2.790365 0.004041
v -0.352265 2.769415 0.004041
v -0.012849 2.790365 -0.011018
v 0.011244 2.769415 0.004041
v 0.011244 2.769415 -0.011018
v 0.011244 2.790365 -0.011018
v -0.012849 2.769415 0.004041
v 0.355903 2.769415 0.004041
v 0.355903 2.790365 0.004041
v 0.331809 2.790365 0.004041
v 0.331809 2.790365 -0.011018
v 0.331809 2.769415 0.004041
v -0.000571 2.090267 -0.018407
v 0.006303 2.090267 -0.016698
v 0.012130 2.090267 -0.011831
v 0.016024 2.090267 -0.004547
v 0.017391 2.090267 0.004045
v 0.016024 2.090267 0.012638
v 0.012130 2.090267 0.019922
v 0.006303 2.090267 0.024789
v -0.000571 2.090267 0.026498
v -0.007445 2.090267 0.024789
v -0.013272 2.090267 0.019922
v -0.017166 2.090267 0.012638
v -0.018533 2.090267 0.004045
v -0.017166 2.090267 -0.004547
v -0.013272 2.090267 -0.011831
v -0.007445 2.090267 -0.016698
v 0.518256 2.769415 -0.011018
v 0.541299 2.749377 -0.011018
v 0.518256 2.769415 0.019099
v 0.541299 2.749377 0.019099
v 0.524131 2.140892 0.019099
v 0.541299 2.155821 0.019099
v 0.524131 2.140892 -0.011018
v 0.541299 2.155821 -0.011018
v -0.521262 2.140892 -0.011018
v -0.542904 2.159711 0.019099
v -0.542904 2.159711 -0.011018
v -0.521262 2.140892 0.019099
v -0.515373 2.769415 -0.011018
v -0.542904 2.745475 -0.011018
v -0.542904 2.745150 0.019099
v -0.509044 2.769415 0.019099
v -0.017166 -0.650463 0.012638
v -0.018533 -0.650465 0.004046
v 0.016024 -0.650463 0.012638
v 0.012130 -0.650465 0.019922
v 0.006303 -0.650465 0.024789
v -0.000571 -0.650465 0.026498
v -0.007445 -0.650463 0.024789
v -0.013272 -0.650465 0.019922
v 0.017391 -0.650463 0.004046
v -0.000571 -0.650463 -0.018407
v -0.007445 -0.650463 -0.016698
v -0.013272 -0.650465 -0.011831
v -0.017166 -0.650463 -0.004547
v 0.006303 -0.650463 -0.016698
v 0.012130 -0.650465 -0.011831
v 0.016024 -0.650463 -0.004547
vt 0.325382 0.693332
vt 0.313030 0.681042
vt 0.313030 0.317003
vt 0.322233 0.307847
vt 0.882576 0.307847
vt 0.894176 0.319389
vt 0.894176 0.678649
vt 0.879419 0.693332
vt 0.312993 0.317312
vt 0.322251 0.307807
vt 0.882308 0.307886
vt 0.893818 0.319559
vt 0.894205 0.678783
vt 0.879758 0.693199
vt 0.326172 0.693359
vt 0.313214 0.681287
vt 0.157661 0.551006
vt 0.161361 0.551006
vt 0.161361 0.555355
vt 0.157661 0.555355
vt 0.157224 0.546657
vt 0.160924 0.546657
vt 0.160924 0.551006
vt 0.157224 0.551006
vt 0.187261 0.548832
vt 0.183561 0.548832
vt 0.183561 0.546657
vt 0.187261 0.546657
vt 0.153524 0.544482
vt 0.153524 0.546657
vt 0.149824 0.546657
vt 0.149824 0.544482
vt 0.174331 0.531440
vt 0.174331 0.535732
vt 0.096447 0.535732
vt 0.096447 0.531440
vt 0.149824 0.544482
vt 0.149824 0.546657
vt 0.146124 0.546657
vt 0.146124 0.544482
vt 0.176161 0.551006
vt 0.172461 0.551006
vt 0.172461 0.546657
vt 0.176161 0.546657
vt 0.149824 0.546657
vt 0.153524 0.546657
vt 0.153524 0.551006
vt 0.149824 0.551006
vt 0.187261 0.544482
vt 0.187261 0.546657
vt 0.183561 0.546657
vt 0.183561 0.544482
vt 0.096447 0.531440
vt 0.096447 0.535732
vt 0.018563 0.535732
vt 0.018563 0.531440
vt 0.146124 0.546657
vt 0.149824 0.546657
vt 0.149824 0.551006
vt 0.146124 0.551006
vt 0.157661 0.555355
vt 0.153961 0.555355
vt 0.153961 0.551006
vt 0.157661 0.551006
vt 0.183561 0.551006
vt 0.187261 0.551006
vt 0.187261 0.555355
vt 0.183561 0.555355
vt 0.187639 0.231729
vt 0.004537 0.231729
vt 0.012405 0.225036
vt 0.180253 0.225036
vt 0.183561 0.555355
vt 0.179861 0.555355
vt 0.179861 0.551006
vt 0.183561 0.551006
vt 0.172461 0.544482
vt 0.176161 0.544482
vt 0.176161 0.546657
vt 0.172461 0.546657
vt 0.172024 0.544482
vt 0.172024 0.546657
vt 0.168324 0.546657
vt 0.168324 0.544482
vt 0.190961 0.551006
vt 0.190961 0.553181
vt 0.187261 0.553181
vt 0.187261 0.551006
vt 0.179861 0.555355
vt 0.176161 0.555355
vt 0.176161 0.551006
vt 0.179861 0.551006
vt 0.187261 0.548832
vt 0.190961 0.548832
vt 0.190961 0.551006
vt 0.187261 0.551006
vt 0.103525 0.535732
vt 0.103525 0.540023
vt 0.018563 0.540023
vt 0.018563 0.535732
vt 0.190961 0.546657
vt 0.190961 0.548832
vt 0.187261 0.548832
vt 0.187261 0.546657
vt 0.165061 0.555355
vt 0.161361 0.555355
vt 0.161361 0.551006
vt 0.165061 0.551006
vt 0.165061 0.551006
vt 0.168761 0.551006
vt 0.168761 0.555355
vt 0.165061 0.555355
vt 0.157224 0.544482
vt 0.157224 0.546657
vt 0.153524 0.546657
vt 0.153524 0.544482
vt 0.153961 0.555355
vt 0.149824 0.555355
vt 0.149824 0.551006
vt 0.153961 0.551006
vt 0.194712 0.488999
vt 0.004928 0.488999
vt 0.012584 0.482062
vt 0.186557 0.482062
vt 0.190960 0.544482
vt 0.190960 0.546657
vt 0.187261 0.546657
vt 0.187261 0.544482
vt 0.132955 0.544315
vt 0.018563 0.544315
vt 0.018563 0.540023
vt 0.132955 0.540023
vt 0.183561 0.544482
vt 0.183561 0.546657
vt 0.179861 0.546657
vt 0.179861 0.544482
vt 0.132955 0.544315
vt 0.132955 0.548606
vt 0.018563 0.548606
vt 0.018563 0.544315
vt 0.172461 0.551006
vt 0.168761 0.551006
vt 0.168761 0.546657
vt 0.172461 0.546657
vt 0.157224 0.551006
vt 0.153524 0.551006
vt 0.153524 0.546657
vt 0.157224 0.546657
vt 0.164624 0.544482
vt 0.164624 0.546657
vt 0.160924 0.546657
vt 0.160924 0.544482
vt 0.190961 0.555355
vt 0.187261 0.555355
vt 0.187261 0.553181
vt 0.190961 0.553181
vt 0.179861 0.544482
vt 0.179861 0.546657
vt 0.176161 0.546657
vt 0.176161 0.544482
vt 0.176161 0.555355
vt 0.172461 0.555355
vt 0.172461 0.551006
vt 0.176161 0.551006
vt 0.180253 0.015317
vt 0.012405 0.015317
vt 0.004537 0.008623
vt 0.187639 0.008623
vt 0.004928 0.257752
vt 0.012584 0.264689
vt 0.160924 0.544482
vt 0.160924 0.546657
vt 0.157224 0.546657
vt 0.157224 0.544482
vt 0.165061 0.546657
vt 0.168761 0.546657
vt 0.168761 0.551006
vt 0.165061 0.551006
vt 0.160924 0.551006
vt 0.160924 0.546657
vt 0.164624 0.546657
vt 0.164624 0.551006
vt 0.176161 0.548832
vt 0.179861 0.548832
vt 0.179861 0.551006
vt 0.176161 0.551006
vt 0.168324 0.544482
vt 0.168324 0.546657
vt 0.164624 0.546657
vt 0.164624 0.544482
vt 0.145688 0.551006
vt 0.149824 0.551006
vt 0.149824 0.555355
vt 0.145688 0.555355
vt 0.103525 0.540023
vt 0.103525 0.535732
vt 0.188487 0.535732
vt 0.188487 0.540023
vt 0.195507 0.008623
vt 0.195507 0.231729
vt 0.179861 0.546657
vt 0.183561 0.546657
vt 0.183561 0.551006
vt 0.179861 0.551006
vt 0.179861 0.548832
vt 0.176161 0.548832
vt 0.176161 0.546657
vt 0.179861 0.546657
vt 0.187261 0.551006
vt 0.183561 0.551006
vt 0.183561 0.548832
vt 0.187261 0.548832
vt 0.018563 0.548606
vt 0.140257 0.548606
vt 0.140257 0.552898
vt 0.018563 0.552898
vt 0.168761 0.551006
vt 0.172461 0.551006
vt 0.172461 0.555355
vt 0.168761 0.555355
vt 0.186557 0.264689
vt 0.194712 0.257752
vt 0.191744 0.793318
vt 0.184824 0.793318
vt 0.184824 0.601147
vt 0.191744 0.601147
vt 0.184824 0.952172
vt 0.177904 0.952172
vt 0.177904 0.944711
vt 0.184824 0.944711
vt 0.177904 0.610061
vt 0.184824 0.612110
vt 0.170983 0.606706
vt 0.177903 0.606706
vt 0.177904 0.945165
vt 0.170983 0.945165
vt 0.177904 0.601147
vt 0.184824 0.601147
vt 0.177904 0.952172
vt 0.170983 0.952172
vt 0.170983 0.601147
vt 0.177903 0.601147
vt 0.184824 0.793318
vt 0.191744 0.793318
vt 0.191744 0.982862
vt 0.184824 0.982967
vt 0.064289 0.615768
vt 0.072291 0.615702
vt 0.072291 0.978740
vt 0.064289 0.978806
vt 0.080293 0.615635
vt 0.080293 0.978673
vt 0.112302 0.615369
vt 0.120304 0.615303
vt 0.120304 0.978341
vt 0.112302 0.978408
vt 0.056287 0.615834
vt 0.056287 0.978872
vt 0.096298 0.615502
vt 0.104300 0.615436
vt 0.104300 0.978474
vt 0.096298 0.978540
vt 0.088295 0.615569
vt 0.088295 0.978607
vt 0.128306 0.615237
vt 0.128306 0.978275
vt 0.048285 0.615901
vt 0.048285 0.978939
vt 0.144310 0.615104
vt 0.152313 0.615038
vt 0.152313 0.978076
vt 0.144310 0.978142
vt 0.024278 0.616100
vt 0.032281 0.616033
vt 0.032281 0.979071
vt 0.024278 0.979138
vt 0.040283 0.615967
vt 0.040283 0.979005
vt 0.136308 0.615170
vt 0.136308 0.978208
vn -0.0000 0.0000 -1.0000
vn 0.0000 -0.0000 1.0000
vn 0.0000 -1.0000 0.0000
vn 1.0000 0.0000 0.0000
vn -1.0000 -0.0000 0.0000
vn 0.0000 1.0000 0.0000
vn 0.6562 0.7546 0.0000
vn -0.6161 0.7846 0.0690
vn -0.6562 -0.7546 0.0000
vn 0.6562 -0.7546 0.0000
vn -0.9479 0.0000 0.3187
vn -0.7757 0.0000 0.6311
vn -0.4527 0.0000 0.8917
vn 0.9479 0.0000 0.3187
vn 0.4527 0.0000 0.8917
vn 0.7757 0.0000 0.6311
vn 0.9479 -0.0000 -0.3187
vn -0.9479 -0.0000 -0.3187
vn 0.4527 -0.0000 -0.8917
vn -0.4527 -0.0000 -0.8917
vn -0.7757 -0.0000 -0.6311
vn 0.7757 -0.0000 -0.6311
usemtl Road_Sign_(Information_3)
s off
f 113/1/1 114/2/1 120/3/1 119/4/1 121/5/1 123/6/1 126/7/1 125/8/1
f 122/9/2 124/10/2 117/11/2 118/12/2 116/13/2 115/14/2 128/15/2 127/16/2
s 1
f 57/17/2 25/18/2 24/19/2 26/20/2
f 31/21/2 67/22/2 65/23/2 66/24/2
f 12/25/3 40/26/3 10/27/3 11/28/3
f 90/29/4 75/30/4 88/31/4 89/32/4
f 38/33/5 33/34/5 80/35/5 79/36/5
f 28/37/5 59/38/5 58/39/5 37/40/5
f 28/41/1 37/42/1 36/43/1 29/44/1
f 92/45/2 93/46/2 94/47/2 96/48/2
f 36/49/4 61/50/4 60/51/4 29/52/4
f 78/53/4 35/54/4 41/55/4 39/56/4
f 73/57/2 83/58/2 85/59/2 86/60/2
f 21/61/1 23/62/1 22/63/1 27/64/1
f 19/65/2 56/66/2 55/67/2 20/68/2
f 9/69/2 77/70/2 80/71/2 33/72/2
f 74/73/1 95/74/1 50/75/1 51/76/1
f 24/77/6 25/78/6 22/79/6 23/80/6
f 53/81/5 86/82/5 85/83/5 82/84/5
f 50/85/4 93/86/4 92/87/4 51/88/4
f 18/89/1 17/90/1 48/91/1 49/92/1
f 15/93/6 16/94/6 13/95/6 14/96/6
f 34/97/5 43/98/5 71/99/5 81/100/5
f 74/101/5 96/102/5 94/103/5 95/104/5
f 46/105/1 47/106/1 8/107/1 5/108/1
f 69/109/2 7/110/2 6/111/2 4/112/2
f 30/113/5 68/114/5 54/115/5 63/116/5
f 12/117/1 14/118/1 13/119/1 40/120/1
f 70/121/1 42/122/1 38/123/1 79/124/1
f 44/125/4 62/126/4 32/127/4 45/128/4
f 38/129/6 39/130/6 41/131/6 33/132/6
f 3/133/4 67/134/4 31/135/4 1/136/4
f 79/137/3 80/138/3 35/139/3 78/140/3
f 30/141/1 63/142/1 44/143/1 45/144/1
f 53/145/1 82/146/1 84/147/1 72/148/1
f 2/149/5 66/150/5 65/151/5 64/152/5
f 46/153/3 5/154/3 69/155/3 4/156/3
f 7/157/6 8/158/6 47/159/6 6/160/6
f 52/161/1 87/162/1 90/163/1 89/164/1
f 41/165/2 35/166/2 71/167/2 43/168/2
f 38/123/1 42/122/1 34/169/1 39/170/1
f 52/171/5 91/172/5 76/173/5 87/174/5
f 32/175/2 62/176/2 54/177/2 68/178/2
f 64/179/1 3/180/1 1/181/1 2/182/1
f 55/183/6 56/184/6 48/185/6 17/186/6
f 84/187/4 83/188/4 73/189/4 72/190/4
f 10/191/2 16/192/2 15/193/2 11/194/2
f 70/195/4 77/196/4 9/197/4 42/198/4
f 34/199/3 42/200/3 9/69/3 43/168/3
f 60/201/2 61/202/2 58/203/2 59/204/2
f 18/205/3 49/206/3 19/207/3 20/208/3
f 77/70/2 71/167/2 35/166/2 80/71/2
f 21/209/3 27/210/3 57/211/3 26/212/3
f 71/213/6 77/214/6 70/215/6 81/216/6
f 88/217/2 75/218/2 76/219/2 91/220/2
f 41/165/2 43/168/2 9/69/2 33/72/2
f 70/121/1 79/124/1 78/221/1 81/222/1
f 78/221/1 39/170/1 34/169/1 81/222/1
f 114/223/4 116/224/4 118/225/4 120/226/4
f 116/227/7 114/228/7 113/229/7 115/230/7
f 115/230/6 113/229/6 125/231/6 128/232/6
f 119/233/3 117/234/3 124/235/3 121/236/3
f 125/231/8 126/237/8 127/238/8 128/232/8
f 124/235/9 122/239/9 123/240/9 121/236/9
f 117/234/10 119/233/10 120/241/10 118/242/10
f 123/243/5 122/244/5 127/245/5 126/246/5
f 129/247/11 136/248/12 107/249/12 108/250/11
f 136/248/12 135/251/13 106/252/13 107/249/12
f 131/253/14 137/254/4 101/255/4 102/256/14
f 130/257/5 129/247/11 108/250/11 109/258/5
f 133/259/15 132/260/16 103/261/16 104/262/15
f 132/260/16 131/253/14 102/256/14 103/261/16
f 135/251/13 134/263/2 105/264/2 106/252/13
f 134/263/2 133/259/15 104/262/15 105/264/2
f 137/254/4 144/265/17 100/266/17 101/255/4
f 141/267/18 130/257/5 109/258/5 110/268/18
f 142/269/19 138/270/1 97/271/1 98/272/19
f 138/273/1 139/274/20 112/275/20 97/276/1
f 140/277/21 141/267/18 110/268/18 111/278/21
f 144/265/17 143/279/22 99/280/22 100/266/17
f 143/279/22 142/269/19 98/272/19 99/280/22
f 139/274/20 140/277/21 111/278/21 112/275/20
