# Blender v2.79 (sub 7) OBJ File: 'de_road_signs.blend'
# www.blender.org
mtllib de_info_3_road_sign.mtl
o information_3_de_info_3_road_sign
v 0.011390 2.230378 -0.008549
v -0.012704 2.230378 -0.008549
v 0.011390 2.251329 -0.008549
v 0.541445 2.335830 0.006509
v 0.565538 2.335830 -0.008549
v 0.541445 2.356782 0.006509
v 0.565538 2.356782 0.006509
v 0.565538 2.356782 -0.008549
v 0.601678 2.200876 0.029097
v 0.565538 2.645794 0.006510
v 0.541445 2.645794 0.006510
v 0.541445 2.645794 -0.008549
v 0.565538 2.669218 -0.008549
v 0.541445 2.669218 -0.008549
v 0.541445 2.669218 0.006510
v 0.565538 2.669218 0.006510
v -0.566852 2.677220 -0.008549
v -0.566852 2.656269 -0.008549
v -0.542759 2.656269 0.006510
v -0.566852 2.656269 0.006510
v -0.566852 2.335830 -0.008549
v -0.542759 2.356782 -0.008549
v -0.566852 2.356782 -0.008549
v -0.566852 2.356782 0.006510
v -0.542759 2.356782 0.006510
v -0.566852 2.335830 0.006510
v -0.542759 2.335830 -0.008549
v -0.352119 2.230378 -0.008549
v -0.328026 2.230378 -0.008549
v 0.331955 2.230378 -0.008549
v 0.011390 2.230378 0.006509
v 0.356048 2.230378 0.006509
v 0.565538 2.230378 0.029097
v -0.602992 2.200876 -0.016078
v -0.566852 2.900803 0.029097
v -0.328026 2.251329 -0.008549
v -0.352119 2.251329 -0.008549
v 0.565538 2.230378 -0.016078
v -0.566852 2.230378 -0.016078
v 0.565538 2.645794 -0.008549
v -0.566852 2.230378 0.029097
v 0.601678 2.200876 -0.016078
v -0.602992 2.200876 0.029097
v 0.356048 2.251329 -0.008549
v 0.356048 2.230378 -0.008549
v 0.541445 2.335830 -0.008549
v 0.541445 2.356782 -0.008549
v -0.542759 2.677220 -0.008549
v -0.542759 2.656269 -0.008549
v 0.356048 2.900803 -0.008549
v 0.356048 2.879852 -0.008549
v -0.012704 2.879852 -0.008549
v -0.352119 2.879852 -0.008549
v 0.331955 2.251329 0.006509
v -0.566852 2.677220 0.006510
v -0.542759 2.677220 0.006510
v -0.542759 2.335830 0.006510
v -0.352119 2.251329 0.006509
v -0.352119 2.230378 0.006509
v -0.328026 2.230378 0.006509
v -0.328026 2.251329 0.006509
v 0.356048 2.251329 0.006509
v 0.331955 2.251329 -0.008549
v -0.012704 2.251329 -0.008549
v -0.012704 2.251329 0.006509
v -0.012704 2.230378 0.006509
v 0.011390 2.251329 0.006509
v 0.331955 2.230378 0.006509
v 0.565538 2.335830 0.006509
v 0.601678 2.932229 -0.016078
v -0.602992 2.932229 0.029097
v -0.328026 2.879852 -0.008549
v -0.328026 2.879852 0.006510
v 0.331955 2.879852 -0.008549
v 0.011390 2.900803 0.006510
v -0.012704 2.900803 0.006510
v 0.601678 2.932229 0.029097
v -0.566852 2.900803 -0.016078
v 0.565538 2.900803 -0.016078
v 0.565538 2.900803 0.029097
v -0.602992 2.932229 -0.016078
v -0.352119 2.900803 -0.008549
v -0.328026 2.900803 0.006510
v -0.328026 2.900803 -0.008549
v -0.352119 2.900803 0.006510
v -0.352119 2.879852 0.006510
v -0.012704 2.900803 -0.008549
v 0.011390 2.879852 0.006510
v 0.011390 2.879852 -0.008549
v 0.011390 2.900803 -0.008549
v -0.012704 2.879852 0.006510
v 0.356048 2.879852 0.006510
v 0.356048 2.900803 0.006510
v 0.331955 2.900803 0.006510
v 0.331955 2.900803 -0.008549
v 0.331955 2.879852 0.006510
v -0.000657 2.200892 -0.016009
v 0.006217 2.200892 -0.014300
v 0.012044 2.200892 -0.009433
v 0.015938 2.200892 -0.002149
v 0.017305 2.200892 0.006443
v 0.015938 2.200892 0.015035
v 0.012044 2.200892 0.022319
v 0.006217 2.200892 0.027186
v -0.000657 2.200892 0.028896
v -0.007531 2.200892 0.027186
v -0.013358 2.200892 0.022319
v -0.017252 2.200892 0.015035
v -0.018619 2.200892 0.006443
v -0.017252 2.200892 -0.002149
v -0.013358 2.200892 -0.009433
v -0.007531 2.200892 -0.014300
v -0.017252 -0.499812 0.015035
v -0.018619 -0.499814 0.006443
v 0.015938 -0.499812 0.015035
v 0.012044 -0.499814 0.022320
v 0.006217 -0.499814 0.027187
v -0.000657 -0.499814 0.028896
v -0.007531 -0.499812 0.027187
v -0.013358 -0.499814 0.022320
v 0.017305 -0.499812 0.006443
v -0.000657 -0.499812 -0.016009
v -0.007531 -0.499812 -0.014300
v -0.013358 -0.499814 -0.009433
v -0.017252 -0.499812 -0.002149
v 0.006217 -0.499812 -0.014300
v 0.012044 -0.499814 -0.009433
v 0.015938 -0.499812 -0.002149
v 0.536742 2.268620 0.007503
v -0.508304 2.251449 0.007519
v 0.541343 2.845250 0.006942
v 0.507002 2.879591 0.006909
v 0.536742 2.862421 0.006926
v 0.541343 2.285790 0.007486
v 0.507002 2.251449 0.007519
v 0.524173 2.256050 0.007515
v -0.542645 2.845250 0.006942
v -0.525474 2.874990 0.006913
v -0.538044 2.268620 0.007503
v 0.524173 2.874990 0.006913
v -0.508304 2.879591 0.006909
v -0.538044 2.862421 0.006926
v -0.542645 2.285790 0.007486
v -0.525474 2.256050 0.007515
v 0.507002 2.251449 -0.008354
v 0.541343 2.845250 -0.008931
v 0.524173 2.874990 -0.008960
v -0.508304 2.879591 -0.008964
v -0.525474 2.874990 -0.008960
v -0.542645 2.845250 -0.008931
v 0.536742 2.268620 -0.008317
v 0.541343 2.285790 -0.008333
v -0.508304 2.251449 -0.008300
v 0.524173 2.256050 -0.008304
v 0.536742 2.862421 -0.008894
v 0.507002 2.879591 -0.008910
v -0.538044 2.862421 -0.008894
v -0.542645 2.285790 -0.008333
v -0.538044 2.268620 -0.008317
v -0.525474 2.256050 -0.008304
vt 0.183213 0.538535
vt 0.183213 0.543434
vt 0.094292 0.543434
vt 0.094292 0.538535
vt 0.094292 0.538535
vt 0.094292 0.543434
vt 0.005370 0.543434
vt 0.005370 0.538535
vt 0.175761 0.337907
vt 0.175761 0.467645
vt 0.171019 0.462070
vt 0.171019 0.343140
vt 0.102373 0.543434
vt 0.102373 0.548334
vt 0.005370 0.548334
vt 0.005370 0.543434
vt 0.194488 0.322977
vt 0.194488 0.479865
vt 0.188754 0.473536
vt 0.188754 0.329719
vt 0.135974 0.553234
vt 0.005370 0.553234
vt 0.005370 0.548334
vt 0.135974 0.548334
vt 0.135974 0.553234
vt 0.135974 0.558134
vt 0.005370 0.558134
vt 0.005370 0.553234
vt 0.022420 0.343140
vt 0.022420 0.462070
vt 0.017677 0.467645
vt 0.017677 0.337907
vt 0.003324 0.479865
vt 0.009059 0.473536
vt 0.102373 0.548334
vt 0.102373 0.543434
vt 0.199376 0.543434
vt 0.199376 0.548334
vt 0.017677 0.332332
vt 0.175761 0.332332
vt 0.005370 0.558134
vt 0.144310 0.558134
vt 0.144310 0.563033
vt 0.005370 0.563033
vt 0.009059 0.329719
vt 0.003324 0.322977
vt 0.875149 0.306069
vt 0.884396 0.308915
vt 0.891165 0.316690
vt 0.893643 0.327310
vt 0.893643 0.673350
vt 0.891165 0.683970
vt 0.884396 0.691745
vt 0.875149 0.694591
vt 0.328374 0.694591
vt 0.319127 0.691745
vt 0.312358 0.683970
vt 0.309880 0.673350
vt 0.309880 0.327310
vt 0.312357 0.316690
vt 0.319127 0.308915
vt 0.328374 0.306069
vt 0.328374 0.306069
vt 0.875149 0.306069
vt 0.884396 0.308915
vt 0.891165 0.316690
vt 0.893643 0.327310
vt 0.893643 0.673350
vt 0.891165 0.683970
vt 0.884396 0.691745
vt 0.875149 0.694591
vt 0.328374 0.694591
vt 0.319127 0.691745
vt 0.312357 0.683970
vt 0.309880 0.673350
vt 0.309880 0.327310
vt 0.312358 0.316690
vt 0.319127 0.308915
vt 0.164181 0.560874
vt 0.168406 0.560874
vt 0.168406 0.565839
vt 0.164181 0.565839
vt 0.163682 0.555908
vt 0.167907 0.555908
vt 0.167907 0.560874
vt 0.163682 0.560874
vt 0.197976 0.558391
vt 0.193752 0.558391
vt 0.193752 0.555908
vt 0.197976 0.555908
vt 0.159458 0.553425
vt 0.159458 0.555908
vt 0.155234 0.555908
vt 0.155234 0.553425
vt 0.155234 0.553425
vt 0.155234 0.555908
vt 0.151010 0.555908
vt 0.151010 0.553425
vt 0.185303 0.560874
vt 0.181079 0.560874
vt 0.181079 0.555908
vt 0.185303 0.555908
vt 0.155234 0.555908
vt 0.159458 0.555908
vt 0.159458 0.560874
vt 0.155234 0.560874
vt 0.197976 0.553425
vt 0.197976 0.555908
vt 0.193752 0.555908
vt 0.193752 0.553425
vt 0.151010 0.555908
vt 0.155234 0.555908
vt 0.155234 0.560874
vt 0.151010 0.560874
vt 0.164181 0.565839
vt 0.159957 0.565839
vt 0.159957 0.560874
vt 0.164181 0.560874
vt 0.193752 0.560874
vt 0.197976 0.560874
vt 0.197976 0.565839
vt 0.193752 0.565839
vt 0.193752 0.565839
vt 0.189527 0.565839
vt 0.189527 0.560874
vt 0.193752 0.560874
vt 0.181079 0.553425
vt 0.185303 0.553425
vt 0.185303 0.555908
vt 0.181079 0.555908
vt 0.180579 0.553425
vt 0.180579 0.555908
vt 0.176355 0.555908
vt 0.176355 0.553425
vt 0.202200 0.560874
vt 0.202200 0.563356
vt 0.197976 0.563356
vt 0.197976 0.560874
vt 0.189527 0.565839
vt 0.185303 0.565839
vt 0.185303 0.560874
vt 0.189527 0.560874
vt 0.197976 0.558391
vt 0.202200 0.558391
vt 0.202200 0.560874
vt 0.197976 0.560874
vt 0.202200 0.555908
vt 0.202200 0.558391
vt 0.197976 0.558391
vt 0.197976 0.555908
vt 0.172630 0.565839
vt 0.168406 0.565839
vt 0.168406 0.560874
vt 0.172630 0.560874
vt 0.172630 0.560874
vt 0.176855 0.560874
vt 0.176855 0.565839
vt 0.172630 0.565839
vt 0.163682 0.553425
vt 0.163682 0.555908
vt 0.159458 0.555908
vt 0.159458 0.553425
vt 0.159957 0.565839
vt 0.155234 0.565839
vt 0.155234 0.560874
vt 0.159957 0.560874
vt 0.202200 0.553425
vt 0.202200 0.555908
vt 0.197976 0.555908
vt 0.197976 0.553425
vt 0.193752 0.553425
vt 0.193752 0.555908
vt 0.189527 0.555908
vt 0.189527 0.553425
vt 0.181079 0.560874
vt 0.176855 0.560874
vt 0.176855 0.555908
vt 0.181079 0.555908
vt 0.163682 0.560874
vt 0.159458 0.560874
vt 0.159458 0.555908
vt 0.163682 0.555908
vt 0.172131 0.553425
vt 0.172131 0.555908
vt 0.167907 0.555908
vt 0.167907 0.553425
vt 0.202200 0.565839
vt 0.197976 0.565839
vt 0.197976 0.563356
vt 0.202200 0.563356
vt 0.189527 0.553425
vt 0.189527 0.555908
vt 0.185303 0.555908
vt 0.185303 0.553425
vt 0.185303 0.565839
vt 0.181079 0.565839
vt 0.181079 0.560874
vt 0.185303 0.560874
vt 0.167907 0.553425
vt 0.167907 0.555908
vt 0.163682 0.555908
vt 0.163682 0.553425
vt 0.172630 0.555908
vt 0.176854 0.555908
vt 0.176854 0.560874
vt 0.172630 0.560874
vt 0.167907 0.560874
vt 0.167907 0.555908
vt 0.172131 0.555908
vt 0.172131 0.560874
vt 0.185303 0.558391
vt 0.189527 0.558391
vt 0.189527 0.560874
vt 0.185303 0.560874
vt 0.176355 0.553425
vt 0.176355 0.555908
vt 0.172131 0.555908
vt 0.172131 0.553425
vt 0.150511 0.560874
vt 0.155234 0.560874
vt 0.155234 0.565839
vt 0.150511 0.565839
vt 0.189527 0.555908
vt 0.193752 0.555908
vt 0.193752 0.560874
vt 0.189527 0.560874
vt 0.189527 0.558391
vt 0.185303 0.558391
vt 0.185303 0.555908
vt 0.189527 0.555908
vt 0.197976 0.560874
vt 0.193752 0.560874
vt 0.193752 0.558391
vt 0.197976 0.558391
vt 0.176855 0.560874
vt 0.181079 0.560874
vt 0.181079 0.565839
vt 0.176855 0.565839
vt 0.045484 0.005223
vt 0.052207 0.005167
vt 0.052207 0.310152
vt 0.045484 0.310208
vt 0.058929 0.005111
vt 0.058929 0.310096
vt 0.085820 0.004888
vt 0.092542 0.004832
vt 0.092542 0.309817
vt 0.085820 0.309873
vt 0.038762 0.005278
vt 0.038762 0.310264
vt 0.072374 0.004999
vt 0.079097 0.004944
vt 0.079097 0.309929
vt 0.072374 0.309985
vt 0.065652 0.005055
vt 0.065652 0.310041
vt 0.099265 0.004776
vt 0.099265 0.309762
vt 0.032039 0.005334
vt 0.032039 0.310320
vt 0.112710 0.004665
vt 0.119432 0.004609
vt 0.119432 0.309594
vt 0.112710 0.309650
vt 0.011872 0.005501
vt 0.018594 0.005446
vt 0.018594 0.310431
vt 0.011872 0.310487
vt 0.025317 0.005390
vt 0.025317 0.310375
vt 0.105987 0.004720
vt 0.105987 0.309706
vt 0.058739 0.595867
vt 0.012459 0.595867
vt 0.012472 0.592908
vt 0.058752 0.592908
vt 0.105055 0.592908
vt 0.058932 0.592908
vt 0.058897 0.590743
vt 0.105020 0.590743
vt 0.012665 0.590743
vt 0.058788 0.590743
vt 0.197630 0.693047
vt 0.151507 0.693049
vt 0.151349 0.690091
vt 0.197630 0.690088
vt 0.151349 0.690091
vt 0.105226 0.690088
vt 0.105069 0.593701
vt 0.151349 0.593704
vt 0.151507 0.593704
vt 0.197630 0.593701
vt 0.105226 0.590743
vt 0.151349 0.590745
vt 0.151507 0.590745
vt 0.197630 0.590743
vt 0.058788 0.775914
vt 0.012665 0.775914
vt 0.012472 0.773748
vt 0.058752 0.773748
vt 0.151349 0.693049
vt 0.105226 0.693047
vt 0.105020 0.775914
vt 0.058897 0.775914
vt 0.058933 0.773748
vt 0.105056 0.773748
vt 0.012616 0.770790
vt 0.058739 0.770790
vt 0.105069 0.770790
vt 0.058946 0.770790
vt 0.058788 0.595867
vt 0.105068 0.595867
vn -1.0000 0.0000 0.0000
vn 1.0000 0.0000 0.0000
vn 0.0000 -0.0000 1.0000
vn -0.0000 0.0000 -1.0000
vn 0.0000 1.0000 0.0000
vn 0.0000 -1.0000 0.0000
vn 0.0000 0.0010 1.0000
vn -0.0000 -0.0010 -1.0000
vn 0.0000 -0.7071 0.7071
vn 0.0000 0.7071 0.7071
vn 0.7071 -0.0000 0.7071
vn -0.7071 -0.0000 0.7071
vn 0.0000 -0.7071 -0.7071
vn 0.7071 0.0000 -0.7071
vn -0.7071 -0.0000 -0.7071
vn 0.0000 0.7071 -0.7071
vn -0.9479 0.0000 0.3187
vn -0.7757 0.0000 0.6311
vn -0.4527 0.0000 0.8917
vn 0.9479 0.0000 0.3187
vn 0.4527 0.0000 0.8917
vn 0.7757 0.0000 0.6311
vn 0.9479 -0.0000 -0.3187
vn -0.9479 -0.0000 -0.3187
vn 0.4527 -0.0000 -0.8917
vn -0.4527 -0.0000 -0.8917
vn -0.7757 -0.0000 -0.6311
vn 0.7757 -0.0000 -0.6311
vn -0.1305 0.9914 0.0000
vn -0.4997 0.8662 0.0000
vn -0.5001 0.8660 0.0000
vn 0.4999 -0.8661 0.0000
vn 0.4998 -0.8661 0.0000
vn 0.8661 -0.4999 0.0000
vn 0.8660 -0.5001 0.0000
vn -0.8660 0.5001 0.0000
vn -0.8661 0.4999 0.0000
vn -0.9915 0.1305 0.0000
vn -0.9915 0.1304 0.0000
vn 0.9914 -0.1306 0.0000
vn 0.9915 -0.1304 0.0000
vn 0.9915 0.1305 0.0000
vn 0.9915 0.1304 0.0000
vn -0.9915 -0.1304 0.0000
vn -0.9914 -0.1306 0.0000
vn 0.8660 0.5001 0.0000
vn 0.8661 0.4999 0.0000
vn -0.8661 -0.4999 0.0000
vn -0.8660 -0.5001 0.0000
vn 0.4999 0.8661 0.0000
vn 0.5001 0.8660 0.0000
vn -0.5001 -0.8660 0.0000
vn -0.4999 -0.8661 0.0000
vn 0.1306 0.9914 0.0000
vn 0.1305 0.9914 0.0000
vn -0.1305 -0.9914 0.0000
vn 0.1304 -0.9915 0.0000
vn 0.1305 -0.9914 0.0000
usemtl Road_Sign_(Information_3)
s off
f 38/1/1 33/2/1 80/3/1 79/4/1
f 78/5/2 35/6/2 41/7/2 39/8/2
f 9/9/3 77/10/3 80/11/3 33/12/3
f 34/13/1 43/14/1 71/15/1 81/16/1
f 70/17/4 42/18/4 38/19/4 79/20/4
f 38/21/5 39/22/5 41/23/5 33/24/5
f 79/25/6 80/26/6 35/27/6 78/28/6
f 41/29/3 35/30/3 71/31/3 43/32/3
f 38/19/4 42/18/4 34/33/4 39/34/4
f 70/35/2 77/36/2 9/37/2 42/38/2
f 34/39/6 42/40/6 9/9/6 43/32/6
f 77/10/3 71/31/3 35/30/3 80/11/3
f 71/41/5 77/42/5 70/43/5 81/44/5
f 41/29/3 43/32/3 9/9/3 33/12/3
f 70/17/4 79/20/4 78/45/4 81/46/4
f 78/45/4 39/34/4 34/33/4 81/46/4
f 135/47/7 136/48/7 129/49/7 134/50/7 131/51/7 133/52/7 140/53/7 132/54/7 141/55/7 138/56/7 142/57/7 137/58/7 143/59/7 139/60/7 144/61/7 130/62/7
f 145/63/8 153/64/8 160/65/8 159/66/8 158/67/8 150/68/8 157/69/8 149/70/8 148/71/8 156/72/8 147/73/8 155/74/8 146/75/8 152/76/8 151/77/8 154/78/8
s 1
f 57/79/9 25/80/10 24/81/10 26/82/9
f 31/83/11 67/84/11 65/85/12 66/86/12
f 12/87/13 40/88/13 10/89/9 11/90/9
f 90/91/14 75/92/11 88/93/11 89/94/14
f 28/95/15 59/96/12 58/97/12 37/98/15
f 28/99/15 37/100/15 36/101/14 29/102/14
f 92/103/11 93/104/11 94/105/12 96/106/12
f 36/107/14 61/108/11 60/109/11 29/110/14
f 73/111/11 83/112/11 85/113/12 86/114/12
f 21/115/13 23/116/16 22/117/16 27/118/13
f 19/119/9 56/120/10 55/121/10 20/122/9
f 74/123/15 95/124/15 50/125/14 51/126/14
f 24/127/10 25/128/10 22/129/16 23/130/16
f 53/131/15 86/132/12 85/133/12 82/134/15
f 50/135/14 93/136/11 92/137/11 51/138/14
f 18/139/13 17/140/16 48/141/16 49/142/13
f 15/143/10 16/144/10 13/145/16 14/146/16
f 74/147/15 96/148/12 94/149/12 95/150/15
f 46/151/13 47/152/16 8/153/16 5/154/13
f 69/155/9 7/156/10 6/157/10 4/158/9
f 30/159/15 68/160/12 54/161/12 63/162/15
f 12/163/13 14/164/16 13/165/16 40/166/13
f 44/167/14 62/168/11 32/169/11 45/170/14
f 3/171/14 67/172/11 31/173/11 1/174/14
f 30/175/15 63/176/15 44/177/14 45/178/14
f 53/179/15 82/180/15 84/181/14 72/182/14
f 2/183/15 66/184/12 65/185/12 64/186/15
f 46/187/13 5/188/13 69/189/9 4/190/9
f 7/191/10 8/192/16 47/193/16 6/194/10
f 52/195/15 87/196/15 90/197/14 89/198/14
f 52/199/15 91/200/12 76/201/12 87/202/15
f 32/203/11 62/204/11 54/205/12 68/206/12
f 64/207/15 3/208/14 1/209/14 2/210/15
f 55/211/10 56/212/10 48/213/16 17/214/16
f 84/215/14 83/216/11 73/217/11 72/218/14
f 10/219/9 16/220/10 15/221/10 11/222/9
f 60/223/11 61/224/11 58/225/12 59/226/12
f 18/227/13 49/228/13 19/229/9 20/230/9
f 21/231/13 27/232/13 57/233/9 26/234/9
f 88/235/11 75/236/11 76/237/12 91/238/12
f 113/239/17 120/240/18 107/241/18 108/242/17
f 120/240/18 119/243/19 106/244/19 107/241/18
f 115/245/20 121/246/2 101/247/2 102/248/20
f 114/249/1 113/239/17 108/242/17 109/250/1
f 117/251/21 116/252/22 103/253/22 104/254/21
f 116/252/22 115/245/20 102/248/20 103/253/22
f 119/243/19 118/255/3 105/256/3 106/244/19
f 118/255/3 117/251/21 104/254/21 105/256/3
f 121/246/2 128/257/23 100/258/23 101/247/2
f 125/259/24 114/249/1 109/250/1 110/260/24
f 126/261/25 122/262/4 97/263/4 98/264/25
f 122/265/4 123/266/26 112/267/26 97/268/4
f 124/269/27 125/259/24 110/260/24 111/270/27
f 128/257/23 127/271/28 99/272/28 100/258/23
f 127/271/28 126/261/25 98/264/25 99/272/28
f 123/266/26 124/269/27 111/270/27 112/267/26
f 141/273/29 148/274/29 149/275/30 138/276/31
f 136/277/32 154/278/33 151/279/34 129/280/35
f 138/276/31 149/275/30 157/281/36 142/282/37
f 142/283/37 157/284/36 150/285/38 137/286/39
f 134/287/40 152/288/41 146/289/42 131/290/43
f 137/286/39 150/285/38 158/291/44 143/292/45
f 131/290/43 146/289/42 155/293/46 133/294/47
f 143/292/45 158/291/44 159/295/48 139/296/49
f 133/297/47 155/298/46 147/299/50 140/300/51
f 129/301/35 151/302/34 152/288/41 134/287/40
f 139/303/49 159/304/48 160/305/52 144/306/53
f 140/300/51 147/299/50 156/307/54 132/308/55
f 130/309/56 153/310/56 145/311/57 135/312/58
f 144/306/53 160/305/52 153/310/56 130/309/56
f 132/308/55 156/307/54 148/274/29 141/273/29
f 135/312/58 145/311/57 154/278/33 136/277/32
