# Blender v2.79 (sub 7) OBJ File: 'de_road_signs.blend'
# www.blender.org
mtllib de_info_2_road_sign_LOD.mtl
o information_2_lod_de_info_2_road_sign_LOD
v -0.000024 -0.500000 -0.060540
v -0.000000 2.689204 -0.060540
v 0.029242 -0.500000 -0.043448
v 0.029265 2.689204 -0.043448
v 0.029242 -0.500000 -0.009265
v 0.029265 2.689204 -0.009265
v -0.000024 -0.500000 0.007827
v -0.000000 2.689204 0.007827
v -0.029289 -0.500000 -0.009265
v -0.029265 2.689204 -0.009265
v -0.029289 -0.500000 -0.043448
v -0.029265 2.689204 -0.043448
v 0.250755 2.200772 0.006241
v -0.250755 2.949942 0.006241
v -0.250755 2.949942 0.021944
v -0.250755 2.200772 0.021944
v 0.250755 2.200772 0.021944
v 0.250755 2.949942 0.021944
v -0.250755 2.200772 0.006241
v 0.250755 2.949942 0.006241
vt 0.158475 0.013140
vt 0.181124 0.051766
vt 0.158475 0.090392
vt 0.113178 0.090392
vt 0.090530 0.051766
vt 0.113178 0.013140
vt 0.796756 0.211273
vt 0.796756 0.796634
vt 0.406474 0.796634
vt 0.406474 0.211273
vt 0.170962 0.778720
vt 0.012398 0.778720
vt 0.012398 0.529694
vt 0.170962 0.529694
vt 0.044027 0.001486
vt 0.043859 0.488171
vt 0.035364 0.488216
vt 0.035532 0.001530
vt 0.026870 0.488259
vt 0.027038 0.001574
vt 0.018376 0.488303
vt 0.018544 0.001618
vt 0.069510 0.001354
vt 0.069342 0.488039
vt 0.060847 0.488084
vt 0.061015 0.001398
vt 0.052353 0.488127
vt 0.052521 0.001442
vt 0.188346 0.512443
vt 0.194378 0.512443
vt 0.194378 0.813797
vt 0.188346 0.813797
vt 0.194378 0.512443
vt 0.200410 0.512443
vt 0.200410 0.713374
vt 0.194378 0.713374
vt 0.188346 0.813797
vt 0.182313 0.813797
vt 0.182313 0.512443
vt 0.188346 0.512443
vt 0.200410 0.914305
vt 0.194378 0.914305
vt 0.194378 0.713374
vt 0.200410 0.713374
vn 0.0000 1.0000 0.0000
vn 0.0000 0.0000 1.0000
vn 0.0000 0.0000 -1.0000
vn 0.8673 -0.0000 -0.4978
vn 0.8673 -0.0000 0.4978
vn -0.8673 0.0000 0.4978
vn -0.8673 0.0000 -0.4978
vn 0.7071 -0.7071 0.0000
vn 0.7071 0.7071 0.0000
vn -0.7071 0.7071 0.0000
vn -0.7071 -0.7071 0.0000
usemtl Road_Sign_LOD_(Information_2)
s off
f 4/1/1 2/2/1 12/3/1 10/4/1 8/5/1 6/6/1
f 17/7/2 18/8/2 15/9/2 16/10/2
f 13/11/3 19/12/3 14/13/3 20/14/3
s 1
f 1/15/3 2/16/3 4/17/4 3/18/4
f 3/18/4 4/17/4 6/19/5 5/20/5
f 5/20/5 6/19/5 8/21/2 7/22/2
f 7/23/2 8/24/2 10/25/6 9/26/6
f 9/26/6 10/25/6 12/27/7 11/28/7
f 11/28/7 12/27/7 2/16/3 1/15/3
f 17/29/8 13/30/8 20/31/9 18/32/9
f 18/33/9 20/34/9 14/35/10 15/36/10
f 15/37/10 14/38/10 19/39/11 16/40/11
f 16/41/11 19/42/11 13/43/8 17/44/8
