# Blender v2.79 (sub 7) OBJ File: 'de_road_signs.blend'
# www.blender.org
mtllib de_info_2_road_sign_LOD.mtl
o information_2_lod_de_info_2_road_sign_LOD
v -0.251280 2.829568 0.009602
v -0.248952 2.833039 0.034602
v -0.248952 2.083865 0.009602
v -0.251280 2.087335 0.034602
v 0.248952 2.083865 0.034602
v 0.251280 2.087336 0.009602
v 0.251280 2.829569 0.034602
v 0.248952 2.833039 0.009602
v -0.029218 2.583344 -0.009064
v 0.029218 2.583344 -0.009064
v -0.000000 2.583344 -0.050546
v 0.027717 -0.618180 -0.009064
v -0.027717 -0.618180 -0.009064
v -0.000000 -0.618180 -0.050546
vt 0.161842 0.809681
vt 0.030729 0.811201
vt 0.015893 0.682018
vt 0.147006 0.680495
vt 0.796688 0.796187
vt 0.406886 0.796185
vt 0.406887 0.211393
vt 0.796689 0.211395
vt 0.156959 0.225055
vt 0.127019 0.224227
vt 0.156959 0.222892
vt 0.024637 0.816378
vt 0.010139 0.675318
vt 0.167595 0.816381
vt 0.153097 0.675318
vt 0.062206 0.351491
vt 0.062206 0.220729
vt 0.094613 0.220729
vt 0.094613 0.351491
vt 0.127019 0.221557
vt 0.156959 0.220729
vt 0.156959 0.222892
vt 0.127019 0.220729
vt 0.127019 0.351491
vt 0.062206 0.220729
vt 0.062206 0.351491
vt 0.026198 0.351491
vt 0.026198 0.220729
vn -0.0000 -0.0000 -1.0000
vn 0.0000 0.0000 1.0000
vn 0.0000 1.0000 -0.0000
vn 0.6531 0.7573 0.0000
vn -0.7562 0.6544 0.0000
vn -0.6531 0.7573 0.0000
vn 0.7562 0.6544 0.0000
vn -0.6531 -0.7573 -0.0000
vn -0.7562 -0.6544 -0.0000
vn 0.7562 -0.6543 -0.0000
vn 0.6531 -0.7573 -0.0000
vn 0.8849 -0.0002 0.4658
vn 0.7348 -0.5571 0.3870
vn -0.0000 -0.5526 -0.8334
vn -0.0000 -0.0003 -1.0000
vn -0.7348 -0.5571 0.3870
vn -0.8849 -0.0002 0.4658
usemtl Road_Sign_LOD_(Information_2)
s off
f 3/1/1 1/2/1 8/3/1 6/4/1
f 7/5/2 2/6/2 4/7/2 5/8/2
f 11/9/3 9/10/3 10/11/3
s 1
f 8/3/4 1/2/5 2/12/6 7/13/7
f 1/2/5 3/1/8 4/14/9 2/12/6
f 3/1/8 6/4/10 5/15/11 4/14/9
f 6/4/10 8/3/4 7/13/7 5/15/11
f 10/16/12 12/17/13 14/18/14 11/19/15
f 13/20/16 14/21/14 12/22/13
f 11/19/15 14/18/14 13/23/16 9/24/17
f 9/25/17 13/26/16 12/27/13 10/28/12
