# Blender v2.79 (sub 7) OBJ File: 'de_road_signs.blend'
# www.blender.org
mtllib de_info_2_road_sign_LOD.mtl
o information_2_lod_de_info_2_road_sign_LOD
v 0.250041 2.200650 0.006079
v 0.250041 2.950155 0.006079
v 0.250041 2.200650 0.021868
v 0.250041 2.950155 0.021868
v -0.249621 2.200650 0.006079
v -0.249621 2.950155 0.006079
v -0.249621 2.200650 0.021868
v -0.249621 2.950155 0.021868
v -0.000024 -0.500000 -0.060540
v -0.000000 2.689204 -0.060540
v 0.029125 -0.500000 -0.043448
v 0.029149 2.689204 -0.043448
v 0.029125 -0.500000 -0.009265
v 0.029149 2.689204 -0.009265
v -0.000024 -0.500000 0.007827
v -0.000000 2.689204 0.007827
v -0.029172 -0.500000 -0.009265
v -0.029149 2.689204 -0.009265
v -0.029172 -0.500000 -0.043448
v -0.029149 2.689204 -0.043448
vt 0.195798 0.742188
vt 0.188854 0.742188
vt 0.188854 0.512008
vt 0.195798 0.512008
vt 0.796988 0.796594
vt 0.406644 0.796594
vt 0.406644 0.211159
vt 0.796988 0.211159
vt 0.195798 0.972367
vt 0.188854 0.972367
vt 0.188854 0.742188
vt 0.195798 0.742188
vt 0.010817 0.540940
vt 0.167030 0.540940
vt 0.167030 0.786370
vt 0.010817 0.786371
vt 0.181910 0.857283
vt 0.174966 0.857283
vt 0.174966 0.512008
vt 0.181910 0.512008
vt 0.188854 0.857283
vt 0.181910 0.857283
vt 0.181910 0.512008
vt 0.188854 0.512008
vt 0.158475 0.013140
vt 0.181124 0.051766
vt 0.158475 0.090392
vt 0.113178 0.090392
vt 0.090530 0.051766
vt 0.113178 0.013140
vt 0.044027 0.001486
vt 0.043859 0.488171
vt 0.035364 0.488216
vt 0.035532 0.001530
vt 0.026870 0.488259
vt 0.027038 0.001574
vt 0.018376 0.488303
vt 0.018544 0.001618
vt 0.069510 0.001354
vt 0.069342 0.488039
vt 0.060847 0.488084
vt 0.061015 0.001398
vt 0.052353 0.488127
vt 0.052521 0.001442
vn 0.0000 1.0000 0.0000
vn 0.0000 0.0000 1.0000
vn 0.0000 -1.0000 0.0000
vn 0.0000 0.0000 -1.0000
vn -1.0000 0.0000 0.0000
vn 1.0000 0.0000 0.0000
vn 0.8677 -0.0000 -0.4971
vn 0.8677 -0.0000 0.4971
vn -0.8677 0.0000 0.4971
vn -0.8677 0.0000 -0.4971
usemtl Road_Sign_LOD_(Information_2)
s off
f 6/1/1 8/2/1 4/3/1 2/4/1
f 4/5/2 8/6/2 7/7/2 3/8/2
f 1/9/3 3/10/3 7/11/3 5/12/3
f 6/13/4 2/14/4 1/15/4 5/16/4
f 8/17/5 6/18/5 5/19/5 7/20/5
f 2/21/6 4/22/6 3/23/6 1/24/6
usemtl Road_Sign_LOD_(Information)
f 12/25/1 10/26/1 20/27/1 18/28/1 16/29/1 14/30/1
s 1
f 9/31/4 10/32/4 12/33/7 11/34/7
f 11/34/7 12/33/7 14/35/8 13/36/8
f 13/36/8 14/35/8 16/37/2 15/38/2
f 15/39/2 16/40/2 18/41/9 17/42/9
f 17/42/9 18/41/9 20/43/10 19/44/10
f 19/44/10 20/43/10 10/32/4 9/31/4
