# Blender v2.79 (sub 7) OBJ File: 'de_road_signs.blend'
# www.blender.org
mtllib de_info_3_road_sign_LOD.mtl
o information_3_lod_de_info_3_road_sign_LOD
v -0.566160 2.230379 -0.016121
v -0.602300 2.200877 -0.016121
v 0.566006 2.900638 0.029047
v 0.566006 2.900638 -0.016129
v -0.566160 2.900804 -0.016121
v 0.602371 2.932230 0.029054
v -0.602300 2.932230 0.029054
v 0.602371 2.200877 -0.016121
v -0.566160 2.900804 0.029054
v -0.566160 2.230379 0.029054
v -0.602300 2.200877 0.029054
v 0.602371 2.200877 0.029054
v -0.602300 2.932230 -0.016121
v 0.602371 2.932230 -0.016121
v 0.566006 2.230213 -0.016129
v 0.566006 2.230213 0.029046
v 0.542036 2.879592 -0.008957
v 0.542036 2.251450 -0.008269
v 0.542036 2.879592 0.006901
v 0.542036 2.251450 0.007511
v -0.541952 2.879592 -0.008957
v -0.541952 2.251450 -0.008269
v -0.541952 2.879592 0.006901
v -0.541952 2.251450 0.007511
v 0.006217 2.200892 -0.014300
v 0.015938 2.200892 -0.002149
v 0.015938 2.200892 0.015035
v 0.006217 2.200892 0.027186
v -0.007531 2.200892 0.027186
v -0.017252 2.200892 0.015035
v -0.017252 2.200892 -0.002149
v -0.007531 2.200892 -0.014300
v -0.017252 -0.499812 0.015035
v 0.015938 -0.499812 0.015035
v 0.006217 -0.499814 0.027187
v -0.007531 -0.499812 0.027187
v -0.007531 -0.499812 -0.014300
v -0.017252 -0.499812 -0.002149
v 0.006217 -0.499812 -0.014300
v 0.015938 -0.499812 -0.002149
vt 0.090885 0.004928
vt 0.095924 0.004928
vt 0.095924 0.197805
vt 0.090885 0.197805
vt 0.100038 0.010715
vt 0.100038 0.192019
vt 0.169456 0.525244
vt 0.169456 0.529577
vt 0.013571 0.529577
vt 0.013571 0.525244
vt 0.198152 0.516579
vt 0.198152 0.520911
vt 0.105862 0.520911
vt 0.105862 0.516579
vt 0.161432 0.277122
vt 0.161432 0.463141
vt 0.157206 0.457561
vt 0.157206 0.282703
vt 0.197901 0.004928
vt 0.197901 0.197805
vt 0.193519 0.192019
vt 0.193519 0.010715
vt 0.176576 0.437592
vt 0.172243 0.437592
vt 0.172243 0.271757
vt 0.176576 0.271757
vt 0.189574 0.271757
vt 0.189574 0.372435
vt 0.185242 0.372435
vt 0.185242 0.271757
vt 0.185242 0.473113
vt 0.185242 0.372435
vt 0.189574 0.372435
vt 0.189574 0.473113
vt 0.169456 0.529577
vt 0.169456 0.533909
vt 0.013571 0.533910
vt 0.013571 0.529577
vt 0.063080 0.463141
vt 0.067048 0.457561
vt 0.067048 0.282703
vt 0.063080 0.277122
vt 0.105862 0.520911
vt 0.013571 0.520911
vt 0.013571 0.516579
vt 0.105862 0.516579
vt 0.890559 0.312626
vt 0.890559 0.702758
vt 0.304776 0.702758
vt 0.304776 0.312626
vt 0.890559 0.312633
vt 0.890559 0.702766
vt 0.304776 0.702766
vt 0.304776 0.312634
vt 0.053848 0.759605
vt 0.053847 0.574971
vt 0.099836 0.574971
vt 0.099836 0.759605
vt 0.007632 0.759605
vt 0.007632 0.574971
vt 0.053847 0.574971
vt 0.053847 0.759605
vt 0.146051 0.574971
vt 0.146051 0.681961
vt 0.099836 0.681963
vt 0.100063 0.574973
vt 0.146277 0.681961
vt 0.146051 0.574971
vt 0.192266 0.574973
vt 0.192266 0.681963
vt 0.040127 0.009365
vt 0.050751 0.009277
vt 0.050751 0.250270
vt 0.040127 0.250358
vt 0.018879 0.009542
vt 0.029503 0.009454
vt 0.029503 0.250447
vt 0.018879 0.250535
vt 0.008255 0.009630
vt 0.008255 0.250623
vt 0.071999 0.009101
vt 0.082623 0.009013
vt 0.082623 0.250006
vt 0.071999 0.250094
vt 0.061375 0.009189
vt 0.061375 0.250182
vn 0.0000 -1.0000 -0.0000
vn -0.0000 -0.0001 -1.0000
vn 0.0001 1.0000 0.0000
vn 1.0000 0.0000 0.0000
vn 0.0000 -0.0001 1.0000
vn -0.0000 0.0001 -1.0000
vn 0.0000 1.0000 0.0000
vn -0.0000 0.0000 -1.0000
vn -1.0000 0.0000 -0.0000
vn -0.0001 -1.0000 0.0000
vn 0.0002 0.0000 -1.0000
vn -0.0000 -0.0000 1.0000
vn -0.0002 -0.0000 1.0000
vn 0.0000 0.0001 1.0000
vn 0.0000 0.0010 1.0000
vn 0.0000 -0.0011 -1.0000
vn -0.7074 -0.7069 0.0000
vn 0.7074 -0.7069 0.0000
vn 0.7069 -0.7073 0.0000
vn -0.7069 -0.7073 0.0000
vn 0.7069 0.7074 0.0000
vn -0.7069 0.7074 0.0000
vn -0.7073 0.7069 0.0000
vn 0.7073 0.7069 0.0000
vn -0.4332 0.0000 0.9013
vn 0.4332 0.0000 0.9013
vn -0.9436 -0.0000 -0.3310
vn -0.9436 0.0000 0.3310
vn -0.4332 -0.0000 -0.9013
vn 0.9436 -0.0000 -0.3310
vn 0.4332 -0.0000 -0.9013
vn 0.9436 0.0000 0.3310
usemtl Road_Sign_LOD_(Information_3)
s off
f 11/1/1 2/2/1 8/3/1 12/4/1
f 1/5/2 15/6/2 8/3/2 2/2/2
f 1/7/3 10/8/3 16/9/3 15/10/3
f 5/11/4 9/12/4 10/13/4 1/14/4
f 6/15/5 7/16/5 9/17/5 3/18/5
f 13/19/6 14/20/6 4/21/6 5/22/6
f 13/23/7 7/24/7 6/25/7 14/26/7
f 5/22/8 1/5/8 2/2/8 13/19/8
f 8/27/4 14/28/4 6/29/4 12/30/4
f 13/31/9 2/32/9 11/33/9 7/34/9
f 9/35/10 5/36/10 4/37/10 3/38/10
f 4/21/11 14/20/11 8/3/11 15/6/11
f 9/17/12 7/16/12 11/39/12 10/40/12
f 3/18/13 16/41/13 12/42/13 6/15/13
f 4/43/9 15/44/9 16/45/9 3/46/9
f 16/41/14 10/40/14 11/39/14 12/42/14
f 20/47/15 19/48/15 23/49/15 24/50/15
f 22/51/16 21/52/16 17/53/16 18/54/16
s 1
f 22/55/17 18/56/18 20/57/19 24/58/20
f 17/59/21 21/60/22 23/61/23 19/62/24
f 24/63/20 23/64/23 21/65/22 22/66/17
f 18/67/18 17/68/21 19/69/24 20/70/19
f 36/71/25 35/72/26 28/73/26 29/74/25
f 38/75/27 33/76/28 30/77/28 31/78/27
f 37/79/29 38/75/27 31/78/27 32/80/29
f 40/81/30 39/82/31 25/83/31 26/84/30
f 39/82/31 37/79/29 32/80/29 25/83/31
f 35/72/26 34/85/32 27/86/32 28/73/26
f 33/76/28 36/71/25 29/74/25 30/77/28
f 34/85/32 40/81/30 26/84/30 27/86/32
