# Blender v2.79 (sub 7) OBJ File: 'de_road_signs.blend'
# www.blender.org
mtllib de_priority_road_sign.mtl
o priority_de_priority_road_sign
v -0.021213 3.047344 0.021745
v 0.473762 2.594796 0.021745
v 0.021213 3.047344 0.021745
v -0.473762 2.552371 0.021745
v -0.021213 2.099821 0.007995
v -0.473762 2.552371 0.007995
v 0.473762 2.594796 0.007995
v 0.007071 3.056772 0.007995
v 0.021213 3.047344 0.007995
v -0.021213 3.047344 0.007995
v -0.473762 2.594796 0.007995
v -0.007071 2.090394 0.007995
v 0.021213 2.099821 0.007995
v 0.483190 2.580654 0.007995
v 0.473762 2.552371 0.007995
v 0.473762 2.552371 0.021745
v 0.021213 2.099821 0.021745
v -0.021213 2.099821 0.021745
v -0.483190 2.566512 0.021745
v -0.483190 2.580654 0.021745
v -0.473762 2.594796 0.021745
v 0.007071 3.056772 0.021745
v -0.007071 3.056772 0.007995
v -0.483190 2.580654 0.007995
v 0.483190 2.580654 0.021745
v -0.007071 3.056772 0.021745
v -0.483190 2.566512 0.007995
v 0.483190 2.566512 0.021745
v 0.483190 2.566512 0.007995
v 0.007071 2.090394 0.007995
v 0.007071 2.090394 0.021745
v -0.007071 2.090394 0.021745
v -0.000037 -0.653413 -0.061031
v -0.000037 2.687976 -0.061032
v 0.013166 -0.653413 -0.058405
v 0.013166 2.687976 -0.058405
v 0.024359 -0.653413 -0.050926
v 0.024359 2.687976 -0.050927
v 0.031838 -0.653413 -0.039733
v 0.031838 2.687976 -0.039734
v 0.034464 -0.653413 -0.026530
v 0.034464 2.687976 -0.026531
v 0.031838 -0.653413 -0.013328
v 0.031838 2.687976 -0.013328
v 0.024359 -0.653413 -0.002135
v 0.024359 2.687976 -0.002135
v 0.013166 -0.653413 0.005344
v 0.013166 2.687976 0.005344
v -0.000037 -0.653413 0.007970
v -0.000037 2.687976 0.007970
v -0.013240 -0.653413 0.005344
v -0.013240 2.687976 0.005344
v -0.024433 -0.653413 -0.002135
v -0.024433 2.687976 -0.002135
v -0.031912 -0.653413 -0.013328
v -0.031912 2.687976 -0.013328
v -0.034538 -0.653413 -0.026530
v -0.034538 2.687976 -0.026531
v -0.031912 -0.653413 -0.039733
v -0.031912 2.687976 -0.039734
v -0.024433 -0.653413 -0.050926
v -0.024433 2.687976 -0.050927
v -0.013240 -0.653413 -0.058405
v -0.013240 2.687976 -0.058405
vt 0.020432 0.665900
vt 0.183320 0.665900
vt 0.187580 0.666760
vt 0.190120 0.669301
vt 0.190980 0.673560
vt 0.190980 0.836448
vt 0.190120 0.840668
vt 0.187580 0.843248
vt 0.183320 0.844069
vt 0.020432 0.844069
vt 0.016173 0.843248
vt 0.013632 0.840668
vt 0.012812 0.836448
vt 0.012812 0.673560
vt 0.013632 0.669301
vt 0.016173 0.666760
vt 0.308912 0.495165
vt 0.314872 0.487281
vt 0.589531 0.211815
vt 0.596982 0.207140
vt 0.607191 0.207221
vt 0.614401 0.211269
vt 0.891412 0.488346
vt 0.894384 0.496650
vt 0.894570 0.505310
vt 0.891362 0.514182
vt 0.616850 0.788267
vt 0.606421 0.793121
vt 0.598024 0.793213
vt 0.589186 0.790574
vt 0.313347 0.514459
vt 0.308841 0.506311
vt 0.191225 0.050515
vt 0.183879 0.053558
vt 0.175928 0.053558
vt 0.168582 0.050515
vt 0.162959 0.044893
vt 0.159916 0.037547
vt 0.159916 0.029596
vt 0.162959 0.022250
vt 0.168582 0.016628
vt 0.175928 0.013585
vt 0.183879 0.013585
vt 0.191225 0.016628
vt 0.196847 0.022250
vt 0.199890 0.029596
vt 0.199890 0.037547
vt 0.196847 0.044893
vt 0.187580 0.843248
vt 0.183320 0.844069
vt 0.013632 0.669301
vt 0.012812 0.673560
vt 0.183320 0.665900
vt 0.020432 0.665900
vt 0.013632 0.840668
vt 0.016173 0.843248
vt 0.012812 0.836448
vt 0.020432 0.844069
vt 0.016173 0.666760
vt 0.190980 0.673560
vt 0.190120 0.669301
vt 0.190120 0.840668
vt 0.187580 0.666760
vt 0.190980 0.836448
vt 0.152313 0.008002
vt 0.152313 0.466511
vt 0.144310 0.466577
vt 0.144310 0.008069
vt 0.136308 0.466644
vt 0.136308 0.008135
vt 0.128306 0.466710
vt 0.128306 0.008202
vt 0.120304 0.466776
vt 0.120304 0.008268
vt 0.112302 0.466843
vt 0.112302 0.008334
vt 0.104300 0.466909
vt 0.104300 0.008401
vt 0.096298 0.466976
vt 0.096298 0.008467
vt 0.088295 0.467042
vt 0.088295 0.008534
vt 0.080293 0.467108
vt 0.080293 0.008600
vt 0.072291 0.467175
vt 0.072291 0.008667
vt 0.064289 0.467241
vt 0.064289 0.008733
vt 0.056287 0.467308
vt 0.056287 0.008799
vt 0.048285 0.467374
vt 0.048285 0.008866
vt 0.040283 0.467440
vt 0.040283 0.008932
vt 0.032281 0.467507
vt 0.032281 0.008998
vt 0.024278 0.467573
vt 0.024278 0.009065
vn -0.0000 0.0000 -1.0000
vn 0.0000 -0.0000 1.0000
vn 0.0000 1.0000 0.0000
vn -0.9571 0.2898 0.0000
vn -0.7733 0.6340 0.0000
vn 0.9571 0.2898 0.0000
vn 0.7733 0.6340 0.0000
vn 0.6340 -0.7733 0.0000
vn 0.7733 -0.6340 0.0000
vn 0.2898 0.9571 0.0000
vn -0.2898 0.9571 0.0000
vn 0.6340 0.7733 0.0000
vn -0.6340 0.7733 0.0000
vn 0.9571 -0.2898 0.0000
vn -0.6340 -0.7733 -0.0000
vn -0.2898 -0.9571 -0.0000
vn -0.9571 -0.2898 0.0000
vn 0.2898 -0.9571 0.0000
vn -0.7733 -0.6340 0.0000
vn 0.3827 -0.0000 -0.9239
vn 0.7071 -0.0000 -0.7071
vn 0.9239 -0.0000 -0.3827
vn 1.0000 -0.0000 -0.0000
vn 0.9239 0.0000 0.3827
vn 0.7071 0.0000 0.7071
vn 0.3827 0.0000 0.9239
vn -0.3827 0.0000 0.9239
vn -0.7071 0.0000 0.7071
vn -0.9239 0.0000 0.3827
vn -1.0000 0.0000 -0.0000
vn -0.9239 -0.0000 -0.3827
vn -0.7071 -0.0000 -0.7071
vn -0.3827 -0.0000 -0.9239
usemtl Road_Sign_(Priority)
s off
f 15/1/1 13/2/1 30/3/1 12/4/1 5/5/1 6/6/1 27/7/1 24/8/1 11/9/1 10/10/1 23/11/1 8/12/1 9/13/1 7/14/1 14/15/1 29/16/1
f 19/17/2 4/18/2 18/19/2 32/20/2 31/21/2 17/22/2 16/23/2 28/24/2 25/25/2 2/26/2 3/27/2 22/28/2 26/29/2 1/30/2 21/31/2 20/32/2
f 36/33/3 34/34/3 64/35/3 62/36/3 60/37/3 58/38/3 56/39/3 54/40/3 52/41/3 50/42/3 48/43/3 46/44/3 44/45/3 42/46/3 40/47/3 38/48/3
s 1
f 24/8/4 20/49/4 21/50/5 11/9/5
f 25/51/6 14/15/6 7/14/7 2/52/7
f 17/53/8 13/2/8 15/1/9 16/54/9
f 22/55/10 8/12/10 23/11/11 26/56/11
f 2/52/7 7/14/7 9/13/12 3/57/12
f 1/58/13 10/10/13 11/9/5 21/50/5
f 28/59/14 29/16/14 14/15/6 25/51/6
f 18/60/15 5/5/15 12/4/16 32/61/16
f 27/7/17 19/62/17 20/49/4 24/8/4
f 26/56/11 23/11/11 10/10/13 1/58/13
f 31/63/18 30/3/18 13/2/8 17/53/8
f 6/6/19 4/64/19 19/62/17 27/7/17
f 32/61/16 12/4/16 30/3/18 31/63/18
f 5/5/15 18/60/15 4/64/19 6/6/19
f 3/57/12 9/13/12 8/12/10 22/55/10
f 16/54/9 15/1/9 29/16/14 28/59/14
f 33/65/1 34/66/1 36/67/20 35/68/20
f 35/68/20 36/67/20 38/69/21 37/70/21
f 37/70/21 38/69/21 40/71/22 39/72/22
f 39/72/22 40/71/22 42/73/23 41/74/23
f 41/74/23 42/73/23 44/75/24 43/76/24
f 43/76/24 44/75/24 46/77/25 45/78/25
f 45/78/25 46/77/25 48/79/26 47/80/26
f 47/80/26 48/79/26 50/81/2 49/82/2
f 49/82/2 50/81/2 52/83/27 51/84/27
f 51/84/27 52/83/27 54/85/28 53/86/28
f 53/86/28 54/85/28 56/87/29 55/88/29
f 55/88/29 56/87/29 58/89/30 57/90/30
f 57/90/30 58/89/30 60/91/31 59/92/31
f 59/92/31 60/91/31 62/93/32 61/94/32
f 61/94/32 62/93/32 64/95/33 63/96/33
f 63/96/33 64/95/33 34/97/1 33/98/1
