# Blender v2.79 (sub 7) OBJ File: 'de_road_signs.blend'
# www.blender.org
mtllib de_priority_road_sign_LOD.mtl
o priority_lod_de_priority_road_sign_LOD
v 0.476095 2.664795 0.021550
v 0.476096 2.703336 0.021550
v 0.018382 2.208580 0.021550
v -0.022023 3.155604 0.021550
v 0.022341 3.155604 0.021550
v -0.471923 2.663835 0.021550
v -0.018089 2.208580 0.021550
v -0.471923 2.704296 0.021550
v 0.022341 3.155604 0.007533
v -0.022023 3.155604 0.007533
v -0.018089 2.208580 0.007533
v -0.471923 2.663835 0.007533
v 0.476096 2.703336 0.007533
v 0.476095 2.664795 0.007533
v 0.018382 2.208580 0.007533
v -0.471923 2.704296 0.007533
v -0.000024 -0.500000 -0.060939
v -0.000000 2.799116 -0.060939
v 0.029125 -0.500000 -0.043847
v 0.029149 2.799116 -0.043847
v 0.029125 -0.500000 -0.009664
v 0.029149 2.799116 -0.009664
v -0.000024 -0.500000 0.007428
v -0.000000 2.799116 0.007428
v -0.029172 -0.500000 -0.009664
v -0.029149 2.799116 -0.009664
v -0.029172 -0.500000 -0.043847
v -0.029149 2.799116 -0.043847
vt 0.612034 0.792365
vt 0.584835 0.792354
vt 0.309577 0.516629
vt 0.309414 0.491804
vt 0.584791 0.215819
vt 0.607151 0.215827
vt 0.885989 0.492616
vt 0.886088 0.516262
vt 0.011749 0.765176
vt 0.011214 0.966667
vt 0.018303 0.975251
vt 0.186663 0.975236
vt 0.193392 0.967138
vt 0.193392 0.764964
vt 0.185950 0.755951
vt 0.019934 0.755325
vt 0.158475 0.013140
vt 0.181124 0.051766
vt 0.158475 0.090392
vt 0.113178 0.090392
vt 0.090530 0.051766
vt 0.113178 0.013140
vt 0.170933 0.575691
vt 0.179421 0.575691
vt 0.179421 0.567911
vt 0.170933 0.567911
vt 0.162445 0.732019
vt 0.170933 0.732019
vt 0.170933 0.618693
vt 0.162445 0.618693
vt 0.187908 0.618313
vt 0.179421 0.618313
vt 0.179421 0.628331
vt 0.187908 0.628331
vt 0.179421 0.741049
vt 0.187908 0.741049
vt 0.170933 0.741049
vt 0.162445 0.741049
vt 0.187908 0.506573
vt 0.179421 0.506573
vt 0.170933 0.734313
vt 0.179421 0.734313
vt 0.170933 0.741049
vt 0.179421 0.741049
vt 0.044027 0.001486
vt 0.043859 0.488171
vt 0.035364 0.488216
vt 0.035532 0.001530
vt 0.026870 0.488259
vt 0.027038 0.001574
vt 0.018376 0.488303
vt 0.018544 0.001618
vt 0.069510 0.001354
vt 0.069342 0.488039
vt 0.060847 0.488084
vt 0.061015 0.001398
vt 0.052353 0.488127
vt 0.052521 0.001442
vn 0.0000 -0.0000 1.0000
vn -0.0000 0.0000 -1.0000
vn 0.0000 1.0000 0.0000
vn 0.3819 0.9242 0.0000
vn -0.3834 0.9236 0.0000
vn 0.3819 -0.9242 0.0000
vn 0.9236 -0.3834 0.0000
vn -0.9242 0.3820 0.0000
vn -0.9242 -0.3820 0.0000
vn -0.3834 -0.9236 0.0000
vn 0.9236 0.3834 0.0000
vn 0.8677 -0.0000 -0.4971
vn 0.8677 -0.0000 0.4971
vn -0.8677 0.0000 0.4971
vn -0.8677 0.0000 -0.4971
usemtl Road_Sign_LOD_(Priority)
s off
f 5/1/1 4/2/1 8/3/1 6/4/1 7/5/1 3/6/1 1/7/1 2/8/1
f 9/9/2 13/10/2 14/11/2 15/12/2 11/13/2 12/14/2 16/15/2 10/16/2
f 20/17/3 18/18/3 28/19/3 26/20/3 24/21/3 22/22/3
s 1
f 5/23/4 9/24/4 10/25/5 4/26/5
f 3/27/6 15/28/6 14/29/7 1/30/7
f 8/31/8 16/32/8 12/33/9 6/34/9
f 6/34/9 12/33/9 11/35/10 7/36/10
f 11/37/10 15/28/6 3/27/6 7/38/10
f 4/39/5 10/40/5 16/32/8 8/31/8
f 2/41/11 13/42/11 9/24/4 5/23/4
f 1/43/7 14/44/7 13/42/11 2/41/11
f 17/45/2 18/46/2 20/47/12 19/48/12
f 19/48/12 20/47/12 22/49/13 21/50/13
f 21/50/13 22/49/13 24/51/1 23/52/1
f 23/53/1 24/54/1 26/55/14 25/56/14
f 25/56/14 26/55/14 28/57/15 27/58/15
f 27/58/15 28/57/15 18/46/2 17/45/2
