# Blender v2.79 (sub 7) OBJ File: 'de_road_signs.blend'
# www.blender.org
mtllib de_regulatory_road_sign.mtl
o regulatory_de_regulatory_road_sign
v 0.097382 2.935885 0.007777
v 0.186812 2.903887 0.021527
v 0.186812 2.903887 0.007777
v 0.331566 2.787848 0.021527
v 0.331566 2.787848 0.007777
v 0.381766 2.708933 0.021527
v 0.381766 2.708933 0.007777
v 0.413764 2.619503 0.021527
v 0.413764 2.619503 0.007777
v 0.425000 2.522121 0.021527
v 0.413764 2.424739 0.021527
v 0.413764 2.424739 0.007777
v 0.381765 2.335310 0.007777
v 0.331565 2.256394 0.021527
v -0.000000 2.097121 0.007777
v -0.186812 2.140356 0.021527
v -0.186812 2.140356 0.007777
v -0.331566 2.256394 0.021527
v -0.381765 2.335310 0.021527
v -0.413764 2.424739 0.007777
v -0.425000 2.522121 0.021527
v -0.425000 2.522121 0.007777
v -0.413764 2.619503 0.021527
v -0.413764 2.619503 0.007777
v -0.381765 2.708933 0.007777
v -0.265727 2.853687 0.021527
v -0.186811 2.903887 0.007777
v -0.097382 2.935885 0.021527
v 0.265727 2.853687 0.007777
v 0.000000 2.947122 0.007777
v -0.097382 2.935885 0.007777
v -0.265727 2.853687 0.007777
v -0.331565 2.787848 0.007777
v -0.381765 2.335310 0.007777
v -0.331566 2.256394 0.007777
v -0.265727 2.190556 0.007777
v -0.097382 2.108356 0.007777
v 0.097382 2.108356 0.007777
v 0.186811 2.140356 0.007777
v 0.265727 2.190556 0.007777
v 0.331565 2.256394 0.007777
v 0.425000 2.522121 0.007777
v 0.097382 2.935885 0.021527
v 0.265727 2.853687 0.021527
v 0.381765 2.335310 0.021527
v 0.265727 2.190556 0.021527
v 0.186811 2.140356 0.021527
v 0.097382 2.108356 0.021527
v -0.000000 2.097121 0.021527
v -0.097382 2.108356 0.021527
v -0.265727 2.190556 0.021527
v -0.413764 2.424739 0.021527
v -0.381765 2.708933 0.021527
v -0.331565 2.787848 0.021527
v -0.186811 2.903887 0.021527
v 0.000000 2.947122 0.021527
v 0.000036 -0.659822 -0.061094
v 0.000036 2.636677 -0.061094
v 0.013239 -0.659822 -0.058467
v 0.013239 2.636677 -0.058468
v 0.024432 -0.659822 -0.050989
v 0.024432 2.636677 -0.050989
v 0.031911 -0.659822 -0.039796
v 0.031911 2.636677 -0.039796
v 0.034537 -0.659822 -0.026593
v 0.034537 2.636677 -0.026593
v 0.031911 -0.659822 -0.013390
v 0.031911 2.636677 -0.013390
v 0.024432 -0.659822 -0.002197
v 0.024432 2.636677 -0.002197
v 0.013239 -0.659822 0.005282
v 0.013239 2.636677 0.005281
v 0.000036 -0.659822 0.007908
v 0.000036 2.636677 0.007908
v -0.013167 -0.659822 0.005282
v -0.013167 2.636677 0.005281
v -0.024359 -0.659822 -0.002197
v -0.024359 2.636677 -0.002197
v -0.031838 -0.659822 -0.013390
v -0.031838 2.636677 -0.013390
v -0.034465 -0.659822 -0.026593
v -0.034465 2.636677 -0.026593
v -0.031838 -0.659822 -0.039796
v -0.031838 2.636677 -0.039796
v -0.024359 -0.659822 -0.050989
v -0.024359 2.636677 -0.050989
v -0.013167 -0.659822 -0.058467
v -0.013167 2.636677 -0.058468
vt 0.038466 0.718007
vt 0.046636 0.705172
vt 0.057331 0.694448
vt 0.070165 0.686278
vt 0.084722 0.681079
vt 0.100556 0.679267
vt 0.116391 0.681079
vt 0.130948 0.686278
vt 0.143782 0.694448
vt 0.154507 0.705172
vt 0.162647 0.718007
vt 0.167875 0.732564
vt 0.169688 0.748398
vt 0.167875 0.764233
vt 0.162647 0.778790
vt 0.154507 0.791624
vt 0.143782 0.802319
vt 0.130948 0.810489
vt 0.116391 0.815688
vt 0.100556 0.817529
vt 0.084722 0.815688
vt 0.070165 0.810489
vt 0.057331 0.802319
vt 0.046636 0.791624
vt 0.038466 0.778790
vt 0.033267 0.764233
vt 0.031425 0.748398
vt 0.033267 0.732564
vt 0.785453 0.729022
vt 0.730951 0.763696
vt 0.669182 0.785797
vt 0.601923 0.793560
vt 0.534664 0.785797
vt 0.472895 0.763696
vt 0.418393 0.729028
vt 0.372917 0.683551
vt 0.338249 0.629043
vt 0.316148 0.567281
vt 0.308385 0.500022
vt 0.316148 0.432763
vt 0.338249 0.370994
vt 0.372917 0.316492
vt 0.418393 0.271016
vt 0.472895 0.236342
vt 0.534664 0.214247
vt 0.601923 0.206483
vt 0.669182 0.214247
vt 0.730951 0.236348
vt 0.785453 0.271016
vt 0.830929 0.316492
vt 0.865597 0.370994
vt 0.887698 0.432763
vt 0.895461 0.500022
vt 0.887698 0.567281
vt 0.865597 0.629050
vt 0.830929 0.683551
vt 0.191225 0.057620
vt 0.183879 0.060663
vt 0.175928 0.060663
vt 0.168582 0.057620
vt 0.162959 0.051997
vt 0.159916 0.044651
vt 0.159916 0.036700
vt 0.162959 0.029354
vt 0.168582 0.023732
vt 0.175928 0.020689
vt 0.183879 0.020689
vt 0.191225 0.023732
vt 0.196847 0.029354
vt 0.199890 0.036700
vt 0.199890 0.044651
vt 0.196847 0.051997
vt 0.100556 0.817529
vt 0.116391 0.815688
vt 0.143782 0.802319
vt 0.130948 0.810489
vt 0.038466 0.718007
vt 0.046636 0.705172
vt 0.162647 0.718007
vt 0.167875 0.732564
vt 0.038466 0.778790
vt 0.033267 0.764233
vt 0.031425 0.748398
vt 0.033267 0.732564
vt 0.057331 0.694448
vt 0.070165 0.686278
vt 0.169688 0.748398
vt 0.167875 0.764233
vt 0.154507 0.791624
vt 0.162647 0.778790
vt 0.084722 0.815688
vt 0.070165 0.810489
vt 0.057331 0.802319
vt 0.046636 0.791624
vt 0.154507 0.705172
vt 0.100556 0.679267
vt 0.116391 0.681079
vt 0.130948 0.686278
vt 0.084722 0.681079
vt 0.143782 0.694448
vt 0.152313 0.015107
vt 0.152313 0.473615
vt 0.144310 0.473682
vt 0.144310 0.015173
vt 0.136308 0.473748
vt 0.136308 0.015239
vt 0.128306 0.473814
vt 0.128306 0.015306
vt 0.120304 0.473881
vt 0.120304 0.015372
vt 0.112302 0.473947
vt 0.112302 0.015439
vt 0.104300 0.474013
vt 0.104300 0.015505
vt 0.096298 0.474080
vt 0.096298 0.015572
vt 0.088295 0.474146
vt 0.088295 0.015638
vt 0.080293 0.474213
vt 0.080293 0.015704
vt 0.072291 0.474279
vt 0.072291 0.015771
vt 0.064289 0.474346
vt 0.064289 0.015837
vt 0.056287 0.474412
vt 0.056287 0.015903
vt 0.048285 0.474478
vt 0.048285 0.015970
vt 0.040283 0.474545
vt 0.040283 0.016036
vt 0.032281 0.474611
vt 0.032281 0.016103
vt 0.024278 0.474678
vt 0.024278 0.016169
vn 0.0000 0.0000 -1.0000
vn -0.0000 -0.0000 1.0000
vn 0.0000 1.0000 -0.0000
vn 1.0000 0.0000 0.0000
vn 0.9738 0.2272 0.0000
vn 0.7801 0.6257 0.0000
vn 0.8982 0.4395 0.0000
vn -0.4395 -0.8982 0.0000
vn -0.6257 -0.7801 0.0000
vn -0.4395 0.8982 0.0000
vn -0.2272 0.9738 0.0000
vn 0.4395 -0.8982 0.0000
vn 0.2272 -0.9738 0.0000
vn 0.0000 -1.0000 0.0000
vn -0.2272 -0.9738 0.0000
vn -0.7801 -0.6257 0.0000
vn -0.8982 -0.4395 0.0000
vn 0.2272 0.9738 0.0000
vn 0.6257 0.7801 0.0000
vn 0.4395 0.8982 0.0000
vn 0.9738 -0.2272 0.0000
vn 0.8982 -0.4395 0.0000
vn 0.7801 -0.6257 0.0000
vn 0.6257 -0.7801 0.0000
vn -0.6257 0.7801 0.0000
vn -1.0000 -0.0000 0.0000
vn -0.9738 0.2272 0.0000
vn -0.8982 0.4395 0.0000
vn -0.9738 -0.2272 0.0000
vn -0.7801 0.6257 0.0000
vn 0.3827 -0.0000 -0.9239
vn 0.7071 -0.0000 -0.7071
vn 0.9239 -0.0000 -0.3827
vn 0.9239 0.0000 0.3827
vn 0.7071 0.0000 0.7071
vn 0.3827 0.0000 0.9239
vn -0.3827 0.0000 0.9239
vn -0.7071 0.0000 0.7071
vn -0.9239 0.0000 0.3827
vn -0.9239 -0.0000 -0.3827
vn -0.7071 -0.0000 -0.7071
vn -0.3827 -0.0000 -0.9239
usemtl Road_Sign_(Regulatory)
s off
f 17/1/1 36/2/1 35/3/1 34/4/1 20/5/1 22/6/1 24/7/1 25/8/1 33/9/1 32/10/1 27/11/1 31/12/1 30/13/1 1/14/1 3/15/1 29/16/1 5/17/1 7/18/1 9/19/1 42/20/1 12/21/1 13/22/1 41/23/1 40/24/1 39/25/1 38/26/1 15/27/1 37/28/1
f 44/29/2 2/30/2 43/31/2 56/32/2 28/33/2 55/34/2 26/35/2 54/36/2 53/37/2 23/38/2 21/39/2 52/40/2 19/41/2 18/42/2 51/43/2 16/44/2 50/45/2 49/46/2 48/47/2 47/48/2 46/49/2 14/50/2 45/51/2 11/52/2 10/53/2 8/54/2 6/55/2 4/56/2
f 60/57/3 58/58/3 88/59/3 86/60/3 84/61/3 82/62/3 80/63/3 78/64/3 76/65/3 74/66/3 72/67/3 70/68/3 68/69/3 66/70/3 64/71/3 62/72/3
s 1
f 10/73/4 42/20/4 9/19/5 8/74/5
f 5/17/6 4/75/6 6/76/7 7/18/7
f 17/1/8 16/77/8 51/78/9 36/2/9
f 27/11/10 55/79/10 28/80/11 31/12/11
f 39/25/12 47/81/12 48/82/13 38/26/13
f 15/27/14 49/83/14 50/84/15 37/28/15
f 7/18/7 6/76/7 8/74/5 9/19/5
f 35/3/16 18/85/16 19/86/17 34/4/17
f 30/13/3 56/87/3 43/88/18 1/14/18
f 29/16/19 44/89/19 4/75/6 5/17/6
f 1/14/18 43/88/18 2/90/20 3/15/20
f 12/21/21 11/91/21 45/92/22 13/22/22
f 13/22/22 45/92/22 14/93/23 41/23/23
f 37/28/15 50/84/15 16/77/8 17/1/8
f 41/23/23 14/93/23 46/94/24 40/24/24
f 3/15/20 2/90/20 44/89/19 29/16/19
f 32/10/25 26/95/25 55/79/10 27/11/10
f 42/20/4 10/73/4 11/91/21 12/21/21
f 22/6/26 21/96/26 23/97/27 24/7/27
f 24/7/27 23/97/27 53/98/28 25/8/28
f 34/4/17 19/86/17 52/99/29 20/5/29
f 38/26/13 48/82/13 49/83/14 15/27/14
f 33/9/30 54/100/30 26/95/25 32/10/25
f 40/24/24 46/94/24 47/81/12 39/25/12
f 36/2/9 51/78/9 18/85/16 35/3/16
f 31/12/11 28/80/11 56/87/3 30/13/3
f 25/8/28 53/98/28 54/100/30 33/9/30
f 20/5/29 52/99/29 21/96/26 22/6/26
f 57/101/1 58/102/1 60/103/31 59/104/31
f 59/104/31 60/103/31 62/105/32 61/106/32
f 61/106/32 62/105/32 64/107/33 63/108/33
f 63/108/33 64/107/33 66/109/4 65/110/4
f 65/110/4 66/109/4 68/111/34 67/112/34
f 67/112/34 68/111/34 70/113/35 69/114/35
f 69/114/35 70/113/35 72/115/36 71/116/36
f 71/116/36 72/115/36 74/117/2 73/118/2
f 73/118/2 74/117/2 76/119/37 75/120/37
f 75/120/37 76/119/37 78/121/38 77/122/38
f 77/122/38 78/121/38 80/123/39 79/124/39
f 79/124/39 80/123/39 82/125/26 81/126/26
f 81/126/26 82/125/26 84/127/40 83/128/40
f 83/128/40 84/127/40 86/129/41 85/130/41
f 85/130/41 86/129/41 88/131/42 87/132/42
f 87/132/42 88/131/42 58/133/1 57/134/1
