# Blender v2.79 (sub 7) OBJ File: 'de_road_signs.blend'
# www.blender.org
mtllib de_regulatory_road_sign_LOD.mtl
o regulatory_lod_de_regulatory_road_sign_LOD
v 0.259188 2.998909 0.008009
v 0.000000 3.083124 0.008009
v -0.259188 2.998909 0.008009
v -0.419375 2.778430 0.008009
v 0.000000 2.201209 0.008009
v 0.259188 2.285424 0.008009
v 0.419376 2.505903 0.008009
v 0.419376 2.778430 0.008009
v -0.419375 2.505903 0.008009
v -0.259188 2.285424 0.008009
v 0.259188 2.998909 0.021631
v 0.259188 2.285424 0.021631
v -0.419375 2.778430 0.021631
v 0.000000 3.083124 0.021631
v -0.259188 2.998909 0.021631
v -0.419375 2.505903 0.021631
v -0.259188 2.285424 0.021631
v 0.000000 2.201209 0.021631
v 0.419376 2.505903 0.021631
v 0.419376 2.778430 0.021631
v -0.000024 -0.500000 -0.060540
v -0.000000 2.759240 -0.060540
v 0.029125 -0.500000 -0.043448
v 0.029149 2.759240 -0.043448
v 0.029125 -0.500000 -0.009265
v 0.029149 2.759240 -0.009265
v -0.000024 -0.500000 0.007827
v -0.000000 2.759240 0.007827
v -0.029172 -0.500000 -0.009265
v -0.029149 2.759240 -0.009265
v -0.029172 -0.500000 -0.043448
v -0.029149 2.759240 -0.043448
vt 0.112433 0.866867
vt 0.062239 0.865964
vt 0.022756 0.833801
vt 0.009195 0.783307
vt 0.022464 0.733411
vt 0.063604 0.703322
vt 0.114268 0.703404
vt 0.153759 0.735622
vt 0.168458 0.785815
vt 0.152299 0.835555
vt 0.421046 0.746210
vt 0.311888 0.595202
vt 0.311888 0.408547
vt 0.421046 0.257539
vt 0.597668 0.207672
vt 0.774290 0.257539
vt 0.883449 0.408547
vt 0.883449 0.595202
vt 0.774290 0.746210
vt 0.597668 0.800790
vt 0.158475 0.013140
vt 0.181124 0.051766
vt 0.158475 0.090392
vt 0.113178 0.090392
vt 0.090530 0.051766
vt 0.113178 0.013140
vt 0.115911 0.698346
vt 0.158134 0.732574
vt 0.156741 0.838457
vt 0.114266 0.871823
vt 0.173842 0.785749
vt 0.060556 0.870973
vt 0.018348 0.836810
vt 0.017952 0.730526
vt 0.061824 0.698346
vt 0.003894 0.783449
vt 0.044027 0.001486
vt 0.043859 0.488171
vt 0.035364 0.488216
vt 0.035532 0.001530
vt 0.026870 0.488259
vt 0.027038 0.001574
vt 0.018376 0.488303
vt 0.018544 0.001618
vt 0.069510 0.001354
vt 0.069342 0.488039
vt 0.060847 0.488084
vt 0.061015 0.001398
vt 0.052353 0.488127
vt 0.052521 0.001442
vn 0.0000 0.0000 -1.0000
vn 0.0000 -0.0000 1.0000
vn 0.0000 1.0000 -0.0000
vn -0.0000 -1.0000 0.0000
vn -0.5878 -0.8090 0.0000
vn -0.9511 0.3090 0.0000
vn -0.5878 0.8090 0.0000
vn -0.9511 -0.3090 0.0000
vn 0.5878 0.8090 0.0000
vn 0.9511 -0.3090 0.0000
vn 0.5878 -0.8090 0.0000
vn 0.9511 0.3090 0.0000
vn 0.8677 -0.0000 -0.4971
vn 0.8677 -0.0000 0.4971
vn -0.8677 0.0000 0.4971
vn -0.8677 0.0000 -0.4971
usemtl Road_Sign_LOD_(Regulatory)
s off
f 3/1/1 2/2/1 1/3/1 8/4/1 7/5/1 6/6/1 5/7/1 10/8/1 9/9/1 4/10/1
f 15/11/2 13/12/2 16/13/2 17/14/2 18/15/2 12/16/2 19/17/2 20/18/2 11/19/2 14/20/2
f 24/21/3 22/22/3 32/23/3 30/24/3 28/25/3 26/26/3
s 1
f 18/27/4 17/28/5 10/8/5 5/7/4
f 13/29/6 15/30/7 3/1/7 4/10/6
f 17/28/5 16/31/8 9/9/8 10/8/5
f 14/32/3 11/33/9 1/3/9 2/2/3
f 15/30/7 14/32/3 2/2/3 3/1/7
f 19/34/10 12/35/11 6/6/11 7/5/10
f 12/35/11 18/27/4 5/7/4 6/6/11
f 11/33/9 20/36/12 8/4/12 1/3/9
f 20/36/12 19/34/10 7/5/10 8/4/12
f 16/31/8 13/29/6 4/10/6 9/9/8
f 21/37/1 22/38/1 24/39/13 23/40/13
f 23/40/13 24/39/13 26/41/14 25/42/14
f 25/42/14 26/41/14 28/43/2 27/44/2
f 27/45/2 28/46/2 30/47/15 29/48/15
f 29/48/15 30/47/15 32/49/16 31/50/16
f 31/50/16 32/49/16 22/38/1 21/37/1
