# Blender v2.79 (sub 7) OBJ File: 'de_road_signs.blend'
# www.blender.org
mtllib de_regulatory_road_sign_LOD.mtl
o regulatory_lod_de_regulatory_road_sign_LOD
v 0.259188 2.876344 0.008298
v 0.000000 2.960560 0.008298
v -0.259188 2.876344 0.008298
v -0.419375 2.655865 0.008298
v 0.000000 2.078644 0.008298
v 0.259188 2.162860 0.008298
v 0.419376 2.383338 0.008298
v 0.419376 2.655865 0.008298
v -0.419375 2.383338 0.008298
v -0.259188 2.162860 0.008298
v 0.259188 2.876344 0.035542
v 0.259188 2.162860 0.035541
v -0.419375 2.655865 0.035542
v 0.000000 2.960560 0.035542
v -0.259188 2.876344 0.035542
v -0.419375 2.383338 0.035541
v -0.259188 2.162860 0.035541
v 0.000000 2.078644 0.035541
v 0.419376 2.383338 0.035541
v 0.419376 2.655865 0.035542
v -0.031875 2.636677 -0.012990
v 0.031875 2.636677 -0.012990
v -0.000000 2.636677 -0.060694
v 0.031875 -0.659821 -0.012990
v -0.031875 -0.659821 -0.012990
v -0.000000 -0.659821 -0.060694
vt 0.112433 0.866867
vt 0.062239 0.865964
vt 0.022756 0.833801
vt 0.009195 0.783307
vt 0.022464 0.733411
vt 0.063604 0.703322
vt 0.114268 0.703404
vt 0.153759 0.735622
vt 0.168458 0.785815
vt 0.152299 0.835555
vt 0.421046 0.746210
vt 0.311888 0.595202
vt 0.311888 0.408547
vt 0.421046 0.257539
vt 0.597668 0.207672
vt 0.774290 0.257539
vt 0.883449 0.408547
vt 0.883449 0.595202
vt 0.774290 0.746210
vt 0.597668 0.800790
vt 0.166149 0.109539
vt 0.015027 0.105361
vt 0.166149 0.098621
vt 0.115911 0.698346
vt 0.158134 0.732574
vt 0.156741 0.838457
vt 0.114266 0.871823
vt 0.173842 0.785749
vt 0.060556 0.870973
vt 0.018348 0.836810
vt 0.017952 0.730526
vt 0.061824 0.698346
vt 0.003894 0.783449
vt 0.116973 0.413626
vt 0.116973 0.238478
vt 0.160380 0.238478
vt 0.160380 0.413626
vt 0.015027 0.113717
vt 0.166149 0.109539
vt 0.166149 0.120457
vt 0.073566 0.413626
vt 0.073566 0.238478
vt 0.116973 0.238478
vt 0.116973 0.413626
vt 0.073566 0.238478
vt 0.073566 0.413626
vt 0.025335 0.413626
vt 0.025335 0.238478
vn 0.0000 0.0000 -1.0000
vn -0.0000 -0.0000 1.0000
vn 0.0000 1.0000 0.0000
vn -0.0000 -1.0000 0.0000
vn -0.5878 -0.8090 0.0000
vn -0.9511 0.3090 0.0000
vn -0.5878 0.8090 0.0000
vn -0.9511 -0.3090 0.0000
vn 0.5878 0.8090 0.0000
vn 0.9511 -0.3090 0.0000
vn 0.5878 -0.8090 0.0000
vn 0.9511 0.3090 0.0000
vn 0.8819 0.0000 0.4714
vn 0.7351 -0.5525 0.3929
vn -0.0000 -0.5595 -0.8289
vn -0.7351 -0.5525 0.3929
vn -0.8819 0.0000 0.4714
usemtl Road_Sign_LOD_(Regulatory)
s off
f 3/1/1 2/2/1 1/3/1 8/4/1 7/5/1 6/6/1 5/7/1 10/8/1 9/9/1 4/10/1
f 15/11/2 13/12/2 16/13/2 17/14/2 18/15/2 12/16/2 19/17/2 20/18/2 11/19/2 14/20/2
f 23/21/3 21/22/3 22/23/3
s 1
f 18/24/4 17/25/5 10/8/5 5/7/4
f 13/26/6 15/27/7 3/1/7 4/10/6
f 17/25/5 16/28/8 9/9/8 10/8/5
f 14/29/3 11/30/9 1/3/9 2/2/3
f 15/27/7 14/29/3 2/2/3 3/1/7
f 19/31/10 12/32/11 6/6/11 7/5/10
f 12/32/11 18/24/4 5/7/4 6/6/11
f 11/30/9 20/33/12 8/4/12 1/3/9
f 20/33/12 19/31/10 7/5/10 8/4/12
f 16/28/8 13/26/6 4/10/6 9/9/8
f 22/34/13 24/35/14 26/36/15 23/37/1
f 25/38/16 26/39/15 24/40/14
f 23/41/1 26/42/15 25/43/16 21/44/17
f 21/45/17 25/46/16 24/47/14 22/48/13
