# Blender v2.79 (sub 7) OBJ File: 'de_road_signs.blend'
# www.blender.org
mtllib de_stop_road_sign_LOD.mtl
o stop_lod_de_stop_road_sign_LOD
v -0.400024 2.767735 0.021755
v -0.165742 3.002083 0.021755
v 0.399976 2.767849 0.021755
v 0.165628 3.002130 0.008005
v 0.399976 2.767849 0.008005
v 0.400024 2.436478 0.021754
v 0.165742 2.202130 0.021754
v -0.165629 2.202083 0.008004
v -0.399976 2.436364 0.021754
v -0.400024 2.767735 0.008005
v -0.399976 2.436364 0.008004
v -0.165742 3.002083 0.008005
v 0.400024 2.436478 0.008004
v 0.165742 2.202130 0.008004
v -0.165629 2.202083 0.021754
v 0.165628 3.002130 0.021755
v -0.000024 -0.500000 -0.060540
v -0.000000 2.746140 -0.060540
v 0.029125 -0.500000 -0.043448
v 0.029149 2.746140 -0.043448
v 0.029125 -0.500000 -0.009265
v 0.029149 2.746140 -0.009265
v -0.000024 -0.500000 0.007827
v -0.000000 2.746140 0.007827
v -0.029172 -0.500000 -0.009265
v -0.029149 2.746140 -0.009265
v -0.029172 -0.500000 -0.043448
v -0.029149 2.746140 -0.043448
vt 0.886833 0.623293
vt 0.718031 0.792043
vt 0.479342 0.792011
vt 0.310591 0.623208
vt 0.310624 0.384519
vt 0.479427 0.215769
vt 0.718116 0.215802
vt 0.886866 0.384604
vt 0.138980 0.851987
vt 0.063108 0.852176
vt 0.010248 0.795459
vt 0.011404 0.716166
vt 0.061292 0.657642
vt 0.137163 0.657452
vt 0.190023 0.714169
vt 0.188868 0.793462
vt 0.060048 0.858453
vt 0.141663 0.858453
vt 0.005013 0.713535
vt 0.003588 0.797704
vt 0.195258 0.796093
vt 0.058608 0.651175
vt 0.140223 0.651175
vt 0.196683 0.711924
vt 0.158475 0.013140
vt 0.181124 0.051766
vt 0.158475 0.090392
vt 0.113178 0.090392
vt 0.090530 0.051766
vt 0.113178 0.013140
vt 0.044027 0.001486
vt 0.043859 0.488171
vt 0.035364 0.488216
vt 0.035532 0.001530
vt 0.026870 0.488259
vt 0.027038 0.001574
vt 0.018376 0.488303
vt 0.018544 0.001618
vt 0.069510 0.001354
vt 0.069342 0.488039
vt 0.060847 0.488084
vt 0.061015 0.001398
vt 0.052353 0.488127
vt 0.052521 0.001442
vn -0.0000 -0.0000 1.0000
vn 0.0000 0.0000 -1.0000
vn -0.9238 -0.3828 0.0000
vn -0.3826 -0.9239 0.0000
vn -0.3828 0.9238 0.0000
vn -0.9239 0.3826 0.0000
vn 0.3828 -0.9238 0.0000
vn 0.3826 0.9239 0.0000
vn 0.9238 0.3828 0.0000
vn 0.9239 -0.3826 0.0000
vn 0.0000 1.0000 -0.0000
vn 0.8677 -0.0000 -0.4971
vn 0.8677 -0.0000 0.4971
vn -0.8677 0.0000 0.4971
vn -0.8677 0.0000 -0.4971
usemtl Road_Sign_LOD_(Stop)
s off
f 3/1/1 16/2/1 2/3/1 1/4/1 9/5/1 15/6/1 7/7/1 6/8/1
f 8/9/2 11/10/2 10/11/2 12/12/2 4/13/2 5/14/2 13/15/2 14/16/2
s 1
f 9/17/3 11/10/3 8/9/4 15/18/4
f 2/19/5 12/12/5 10/11/6 1/20/6
f 1/20/6 10/11/6 11/10/3 9/17/3
f 15/18/4 8/9/4 14/16/7 7/21/7
f 4/13/8 16/22/8 3/23/9 5/14/9
f 7/21/7 14/16/7 13/15/10 6/24/10
f 6/24/10 13/15/10 5/14/9 3/23/9
f 16/22/8 4/13/8 12/12/5 2/19/5
usemtl Road_Sign_LOD_(Information)
s off
f 20/25/11 18/26/11 28/27/11 26/28/11 24/29/11 22/30/11
s 1
f 17/31/2 18/32/2 20/33/12 19/34/12
f 19/34/12 20/33/12 22/35/13 21/36/13
f 21/36/13 22/35/13 24/37/1 23/38/1
f 23/39/1 24/40/1 26/41/14 25/42/14
f 25/42/14 26/41/14 28/43/15 27/44/15
f 27/44/15 28/43/15 18/32/2 17/31/2
