# Blender v2.79 (sub 7) OBJ File: 'de_road_signs.blend'
# www.blender.org
mtllib de_stop_road_sign_LOD.mtl
o stop_lod_de_stop_road_sign_LOD
v -0.400024 2.651700 0.021755
v -0.165742 2.886048 0.021755
v 0.399976 2.651814 0.021755
v 0.165628 2.886095 0.008005
v 0.399976 2.651814 0.008005
v 0.400024 2.320443 0.021754
v 0.165742 2.086095 0.021754
v -0.165629 2.086048 0.008004
v -0.399976 2.320329 0.021754
v -0.400024 2.651700 0.008005
v -0.399976 2.320329 0.008004
v -0.165742 2.886048 0.008005
v 0.400024 2.320443 0.008004
v 0.165742 2.086095 0.008004
v -0.165629 2.086048 0.021754
v 0.165628 2.886095 0.021755
v -0.031875 2.630109 -0.012990
v 0.031875 2.630109 -0.012990
v -0.000000 2.630109 -0.060694
v 0.031875 -0.666390 -0.012990
v -0.031875 -0.666390 -0.012990
v -0.000000 -0.666390 -0.060694
vt 0.886833 0.623293
vt 0.718031 0.792043
vt 0.479342 0.792011
vt 0.310591 0.623208
vt 0.310624 0.384519
vt 0.479427 0.215769
vt 0.718116 0.215802
vt 0.886866 0.384604
vt 0.138980 0.851987
vt 0.063108 0.852176
vt 0.010248 0.795459
vt 0.011404 0.716166
vt 0.061292 0.657642
vt 0.137163 0.657452
vt 0.190023 0.714169
vt 0.188868 0.793462
vt 0.166149 0.109539
vt 0.015027 0.105361
vt 0.166149 0.098621
vt 0.060048 0.858453
vt 0.141663 0.858453
vt 0.005013 0.713535
vt 0.003588 0.797704
vt 0.195258 0.796093
vt 0.058608 0.651175
vt 0.140223 0.651175
vt 0.196683 0.711924
vt 0.116973 0.413626
vt 0.116973 0.238478
vt 0.160380 0.238478
vt 0.160380 0.413626
vt 0.015027 0.113717
vt 0.166149 0.109539
vt 0.166149 0.120457
vt 0.073566 0.413626
vt 0.073566 0.238478
vt 0.116973 0.238478
vt 0.116973 0.413626
vt 0.073566 0.238478
vt 0.073566 0.413626
vt 0.025335 0.413626
vt 0.025335 0.238478
vn -0.0000 -0.0000 1.0000
vn 0.0000 0.0000 -1.0000
vn 0.0000 1.0000 0.0000
vn -0.9238 -0.3828 0.0000
vn -0.3826 -0.9239 0.0000
vn -0.3828 0.9238 0.0000
vn -0.9239 0.3826 0.0000
vn 0.3828 -0.9238 0.0000
vn 0.3826 0.9239 0.0000
vn 0.9238 0.3828 0.0000
vn 0.9239 -0.3826 0.0000
vn 0.8819 0.0000 0.4714
vn 0.7351 -0.5525 0.3929
vn -0.0000 -0.5595 -0.8289
vn -0.7351 -0.5525 0.3929
vn -0.8819 0.0000 0.4714
usemtl Road_Sign_LOD_(Stop)
s off
f 3/1/1 16/2/1 2/3/1 1/4/1 9/5/1 15/6/1 7/7/1 6/8/1
f 8/9/2 11/10/2 10/11/2 12/12/2 4/13/2 5/14/2 13/15/2 14/16/2
f 19/17/3 17/18/3 18/19/3
s 1
f 9/20/4 11/10/4 8/9/5 15/21/5
f 2/22/6 12/12/6 10/11/7 1/23/7
f 1/23/7 10/11/7 11/10/4 9/20/4
f 15/21/5 8/9/5 14/16/8 7/24/8
f 4/13/9 16/25/9 3/26/10 5/14/10
f 7/24/8 14/16/8 13/15/11 6/27/11
f 6/27/11 13/15/11 5/14/10 3/26/10
f 16/25/9 4/13/9 12/12/6 2/22/6
f 18/28/12 20/29/13 22/30/14 19/31/2
f 21/32/15 22/33/14 20/34/13
f 19/35/2 22/36/14 21/37/15 17/38/16
f 17/39/16 21/40/15 20/41/13 18/42/12
