# Blender v2.79 (sub 7) OBJ File: 'de_road_signs.blend'
# www.blender.org
mtllib de_stop_road_sign.mtl
o stop_de_stop_road_sign
v -0.400024 2.651700 0.035730
v -0.165742 2.886048 0.035730
v 0.399976 2.651814 0.035730
v 0.165628 2.886095 0.008230
v 0.399976 2.651814 0.008230
v 0.400023 2.320443 0.035729
v 0.165742 2.086095 0.035729
v -0.165629 2.086048 0.008229
v -0.399977 2.320329 0.035729
v -0.400024 2.651700 0.008230
v -0.399977 2.320329 0.008229
v -0.165742 2.886048 0.008230
v 0.400023 2.320443 0.008229
v 0.165742 2.086095 0.008229
v -0.165629 2.086048 0.035729
v 0.165628 2.886095 0.035730
v 0.000036 -0.666390 -0.061094
v 0.000036 2.630109 -0.061094
v 0.013239 -0.666390 -0.058467
v 0.013239 2.630109 -0.058468
v 0.024432 -0.666390 -0.050989
v 0.024432 2.630109 -0.050989
v 0.031911 -0.666390 -0.039796
v 0.031911 2.630109 -0.039796
v 0.034537 -0.666395 -0.026593
v 0.034537 2.630109 -0.026593
v 0.031911 -0.666395 -0.013390
v 0.031911 2.630109 -0.013390
v 0.024432 -0.666395 -0.002197
v 0.024432 2.630109 -0.002197
v 0.013239 -0.666395 0.005282
v 0.013239 2.630109 0.005281
v 0.000036 -0.666395 0.007908
v 0.000036 2.630109 0.007908
v -0.013167 -0.666395 0.005282
v -0.013167 2.630109 0.005281
v -0.024359 -0.666395 -0.002197
v -0.024359 2.630109 -0.002197
v -0.031838 -0.666395 -0.013390
v -0.031838 2.630109 -0.013390
v -0.034465 -0.666395 -0.026593
v -0.034465 2.630109 -0.026593
v -0.031838 -0.666390 -0.039796
v -0.031838 2.630109 -0.039796
v -0.024359 -0.666390 -0.050989
v -0.024359 2.630109 -0.050989
v -0.013167 -0.666390 -0.058467
v -0.013167 2.630109 -0.058468
vt 0.890433 0.618637
vt 0.722691 0.786327
vt 0.485501 0.786295
vt 0.317811 0.618553
vt 0.317844 0.381363
vt 0.485586 0.213673
vt 0.722776 0.213705
vt 0.890466 0.381447
vt 0.165775 0.673889
vt 0.192248 0.737742
vt 0.165775 0.801595
vt 0.101923 0.828068
vt 0.038070 0.801595
vt 0.011597 0.737742
vt 0.038070 0.673889
vt 0.101923 0.647416
vt 0.192248 0.737742
vt 0.165775 0.673889
vt 0.101923 0.828068
vt 0.165775 0.801595
vt 0.101923 0.647416
vt 0.038070 0.801595
vt 0.011597 0.737742
vt 0.038070 0.673889
vt 0.152313 0.015107
vt 0.152313 0.473615
vt 0.144310 0.473682
vt 0.144310 0.015173
vt 0.136308 0.473748
vt 0.136308 0.015239
vt 0.128306 0.473814
vt 0.128306 0.015306
vt 0.120304 0.473881
vt 0.120304 0.015372
vt 0.112302 0.473947
vt 0.112302 0.015439
vt 0.104300 0.474013
vt 0.104300 0.015505
vt 0.096298 0.474080
vt 0.096298 0.015572
vt 0.088295 0.474146
vt 0.088295 0.015638
vt 0.080293 0.474213
vt 0.080293 0.015704
vt 0.072291 0.474279
vt 0.072291 0.015771
vt 0.064289 0.474346
vt 0.064289 0.015837
vt 0.056287 0.474412
vt 0.056287 0.015903
vt 0.048285 0.474478
vt 0.048285 0.015970
vt 0.040283 0.474545
vt 0.040283 0.016036
vt 0.032281 0.474611
vt 0.032281 0.016103
vt 0.024278 0.474678
vt 0.024278 0.016169
vn -0.0000 -0.0000 1.0000
vn 0.0000 0.0000 -1.0000
vn -0.9238 -0.3828 0.0000
vn -0.3826 -0.9239 0.0000
vn -0.3828 0.9238 0.0000
vn -0.9239 0.3826 0.0000
vn 0.3828 -0.9238 0.0000
vn 0.3826 0.9239 0.0000
vn 0.9238 0.3828 0.0000
vn 0.9239 -0.3826 0.0000
vn 0.3827 -0.0000 -0.9239
vn 0.7071 -0.0000 -0.7071
vn 0.9239 -0.0000 -0.3827
vn 1.0000 -0.0000 -0.0000
vn 0.9239 0.0000 0.3827
vn 0.7071 0.0000 0.7071
vn 0.3827 0.0000 0.9239
vn -0.3827 0.0000 0.9239
vn -0.7071 0.0000 0.7071
vn -0.9239 0.0000 0.3827
vn -1.0000 0.0000 -0.0000
vn -0.9239 -0.0000 -0.3827
vn -0.7071 -0.0000 -0.7071
vn -0.3827 -0.0000 -0.9239
usemtl Road_Sign_(Stop)
s off
f 3/1/1 16/2/1 2/3/1 1/4/1 9/5/1 15/6/1 7/7/1 6/8/1
f 8/9/2 11/10/2 10/11/2 12/12/2 4/13/2 5/14/2 13/15/2 14/16/2
s 1
f 9/17/3 11/10/3 8/9/4 15/18/4
f 2/19/5 12/12/5 10/11/6 1/20/6
f 1/20/6 10/11/6 11/10/3 9/17/3
f 15/18/4 8/9/4 14/16/7 7/21/7
f 4/13/8 16/22/8 3/23/9 5/14/9
f 7/21/7 14/16/7 13/15/10 6/24/10
f 6/24/10 13/15/10 5/14/9 3/23/9
f 16/22/8 4/13/8 12/12/5 2/19/5
f 17/25/2 18/26/2 20/27/11 19/28/11
f 19/28/11 20/27/11 22/29/12 21/30/12
f 21/30/12 22/29/12 24/31/13 23/32/13
f 23/32/13 24/31/13 26/33/14 25/34/14
f 25/34/14 26/33/14 28/35/15 27/36/15
f 27/36/15 28/35/15 30/37/16 29/38/16
f 29/38/16 30/37/16 32/39/17 31/40/17
f 31/40/17 32/39/17 34/41/1 33/42/1
f 33/42/1 34/41/1 36/43/18 35/44/18
f 35/44/18 36/43/18 38/45/19 37/46/19
f 37/46/19 38/45/19 40/47/20 39/48/20
f 39/48/20 40/47/20 42/49/21 41/50/21
f 41/50/21 42/49/21 44/51/22 43/52/22
f 43/52/22 44/51/22 46/53/23 45/54/23
f 45/54/23 46/53/23 48/55/24 47/56/24
f 47/56/24 48/55/24 18/57/2 17/58/2
