# Blender v2.79 (sub 7) OBJ File: 'de_road_signs.blend'
# www.blender.org
mtllib de_warning_road_sign_LOD.mtl
o warning_lod_de_warning_road_sign_LOD
v 0.399679 2.235333 0.021711
v 0.383013 2.206466 0.021711
v 0.399679 2.235333 0.007961
v 0.016667 2.898731 0.007961
v -0.016667 2.898731 0.007961
v -0.383013 2.206466 0.007961
v 0.016667 2.898731 0.021711
v -0.016667 2.898731 0.021711
v 0.383013 2.206466 0.007961
v -0.383013 2.206466 0.021711
v -0.399679 2.235333 0.021711
v -0.399679 2.235333 0.007961
v -0.000024 -0.500000 -0.060540
v -0.000000 2.608540 -0.060642
v 0.029125 -0.500000 -0.043448
v 0.029149 2.608540 -0.043551
v 0.029125 -0.500000 -0.009265
v 0.029149 2.608540 -0.009367
v -0.000024 -0.500000 0.007827
v -0.000000 2.608540 0.007724
v -0.029172 -0.500000 -0.009265
v -0.029149 2.608540 -0.009367
v -0.029172 -0.500000 -0.043448
v -0.029149 2.608540 -0.043551
vt 0.301545 0.266646
vt 0.318861 0.243248
vt 0.879660 0.243334
vt 0.895257 0.267689
vt 0.611440 0.757158
vt 0.585102 0.757436
vt 0.031862 0.859067
vt 0.032967 0.689835
vt 0.039087 0.685123
vt 0.180716 0.759782
vt 0.180101 0.767259
vt 0.038868 0.862753
vt 0.187237 0.756945
vt 0.188546 0.769971
vt 0.038468 0.870140
vt 0.025872 0.865407
vt 0.025872 0.683990
vt 0.037938 0.677267
vt 0.158475 0.013140
vt 0.181124 0.051766
vt 0.158475 0.090392
vt 0.113178 0.090392
vt 0.090530 0.051766
vt 0.113178 0.013140
vt 0.044027 0.001486
vt 0.043859 0.488171
vt 0.035364 0.488216
vt 0.035532 0.001530
vt 0.026870 0.488259
vt 0.027038 0.001574
vt 0.018376 0.488303
vt 0.018544 0.001618
vt 0.069510 0.001354
vt 0.069342 0.488039
vt 0.060847 0.488084
vt 0.061015 0.001398
vt 0.052353 0.488127
vt 0.052521 0.001442
vn -0.0000 -0.0000 1.0000
vn 0.0000 0.0000 -1.0000
vn 0.5000 -0.8660 0.0000
vn 1.0000 -0.0000 0.0000
vn -1.0000 -0.0000 0.0000
vn -0.5000 -0.8660 0.0000
vn -0.5000 0.8660 0.0000
vn 0.5317 0.8469 0.0099
vn 0.5000 0.8660 0.0000
vn 0.0000 1.0000 -0.0000
vn 0.8677 -0.0000 -0.4971
vn 0.8677 0.0000 0.4971
vn -0.8677 0.0000 0.4971
vn -0.8677 -0.0000 -0.4971
usemtl Road_Sign_LOD_(Warning)
s off
f 11/1/1 10/2/1 2/3/1 1/4/1 7/5/1 8/6/1
f 12/7/2 5/8/2 4/9/2 3/10/2 9/11/2 6/12/2
s 1
f 9/11/3 3/10/4 1/13/4 2/14/3
f 12/7/5 6/12/6 10/15/6 11/16/5
f 5/8/7 8/17/7 7/18/8 4/9/9
f 4/9/9 7/18/8 1/13/4 3/10/4
f 10/15/6 6/12/6 9/11/3 2/14/3
f 11/16/5 8/17/7 5/8/7 12/7/5
s off
f 16/19/10 14/20/10 24/21/10 22/22/10 20/23/10 18/24/10
s 1
f 13/25/2 14/26/2 16/27/11 15/28/11
f 15/28/11 16/27/11 18/29/12 17/30/12
f 17/30/12 18/29/12 20/31/1 19/32/1
f 19/33/1 20/34/1 22/35/13 21/36/13
f 21/36/13 22/35/13 24/37/14 23/38/14
f 23/38/14 24/37/14 14/26/2 13/25/2
