# Blender v2.79 (sub 7) OBJ File: 'de_road_signs.blend'
# www.blender.org
mtllib de_warning_road_sign_LOD.mtl
o warning_lod_de_warning_road_sign_LOD
v 0.399679 2.119309 0.035686
v 0.383013 2.090442 0.035686
v 0.399679 2.119309 0.008186
v 0.016667 2.782707 0.008186
v -0.016667 2.782707 0.008186
v -0.383013 2.090442 0.008186
v 0.016667 2.782707 0.035686
v -0.016667 2.782707 0.035686
v 0.383013 2.090442 0.008186
v -0.383013 2.090442 0.035686
v -0.399679 2.119309 0.035686
v -0.399679 2.119309 0.008186
v -0.031875 2.490078 -0.012990
v 0.031875 2.490078 -0.012990
v -0.000000 2.490078 -0.060694
v 0.031875 -0.662110 -0.012990
v -0.031875 -0.662110 -0.012990
v -0.000000 -0.662110 -0.060694
vt 0.301545 0.266646
vt 0.318861 0.243248
vt 0.879660 0.243334
vt 0.895257 0.267689
vt 0.611440 0.757158
vt 0.585102 0.757436
vt 0.031862 0.859067
vt 0.032967 0.689835
vt 0.039087 0.685123
vt 0.180716 0.759782
vt 0.180101 0.767259
vt 0.038868 0.862753
vt 0.158317 0.073231
vt 0.015737 0.069290
vt 0.158317 0.062931
vt 0.187237 0.756945
vt 0.188546 0.769971
vt 0.038468 0.870140
vt 0.025872 0.865407
vt 0.025872 0.683990
vt 0.037938 0.677267
vt 0.118697 0.455160
vt 0.118697 0.244846
vt 0.170819 0.244846
vt 0.170819 0.455160
vt 0.015737 0.077173
vt 0.158317 0.073231
vt 0.158317 0.083532
vt 0.066575 0.455160
vt 0.066575 0.244846
vt 0.118697 0.244846
vt 0.118697 0.455160
vt 0.066574 0.244846
vt 0.066575 0.455160
vt 0.008660 0.455160
vt 0.008659 0.244846
vn -0.0000 -0.0000 1.0000
vn 0.0000 0.0000 -1.0000
vn 0.0000 1.0000 0.0000
vn 0.5000 -0.8660 0.0000
vn 1.0000 -0.0000 0.0000
vn -1.0000 -0.0000 0.0000
vn -0.5000 -0.8660 0.0000
vn -0.5000 0.8660 0.0000
vn 0.5317 0.8469 0.0099
vn 0.5000 0.8660 0.0000
vn 0.8819 0.0000 0.4714
vn 0.7351 -0.5525 0.3929
vn -0.0000 -0.5595 -0.8289
vn -0.7351 -0.5525 0.3929
vn -0.8819 0.0000 0.4714
usemtl Road_Sign_LOD_(Warning)
s off
f 11/1/1 10/2/1 2/3/1 1/4/1 7/5/1 8/6/1
f 12/7/2 5/8/2 4/9/2 3/10/2 9/11/2 6/12/2
f 15/13/3 13/14/3 14/15/3
s 1
f 9/11/4 3/10/5 1/16/5 2/17/4
f 12/7/6 6/12/7 10/18/7 11/19/6
f 5/8/8 8/20/8 7/21/9 4/9/10
f 4/9/10 7/21/9 1/16/5 3/10/5
f 10/18/7 6/12/7 9/11/4 2/17/4
f 11/19/6 8/20/8 5/8/8 12/7/6
f 14/22/11 16/23/12 18/24/13 15/25/2
f 17/26/14 18/27/13 16/28/12
f 15/29/2 18/30/13 17/31/14 13/32/15
f 13/33/15 17/34/14 16/35/12 14/36/11
