# Blender v2.79 (sub 7) OBJ File: 'de_road_signs.blend'
# www.blender.org
mtllib de_warning-crossing_road_sign.mtl
o waning-crossing_de_warning-crossing_road_sign
v 0.399679 2.121746 0.035686
v 0.383013 2.092879 0.035686
v 0.362179 2.085662 0.035686
v -0.362179 2.085662 0.035686
v -0.395513 2.104907 0.035686
v -0.395513 2.143397 0.035686
v -0.033333 2.770710 0.035686
v 0.362179 2.085662 0.008186
v 0.399679 2.121746 0.008186
v 0.395513 2.143397 0.008186
v 0.016667 2.785144 0.008186
v 0.000000 2.789955 0.008186
v -0.016667 2.785144 0.008186
v -0.033333 2.770710 0.008186
v -0.383013 2.092879 0.008186
v 0.033333 2.770710 0.008186
v 0.395513 2.143397 0.035686
v -0.362179 2.085662 0.008186
v 0.033333 2.770710 0.035686
v 0.016667 2.785144 0.035686
v 0.000000 2.789955 0.035686
v -0.016667 2.785144 0.035686
v 0.395513 2.104907 0.035686
v 0.395513 2.104907 0.008186
v 0.383013 2.092879 0.008186
v -0.383013 2.092879 0.035686
v -0.399679 2.121746 0.035686
v -0.395513 2.104907 0.008186
v -0.399679 2.121746 0.008186
v -0.395513 2.143397 0.008186
v 0.000000 -0.659993 -0.061065
v 0.013203 -0.659993 -0.058439
v 0.024396 2.492516 -0.050961
v 0.031875 -0.659993 -0.039767
v 0.034501 -0.659993 -0.026564
v 0.034501 2.492516 -0.026565
v 0.024396 -0.659993 -0.002169
v 0.024396 2.492516 -0.002169
v 0.000000 -0.659993 0.007936
v -0.013203 -0.659993 0.005310
v -0.013203 2.492516 0.005310
v -0.031875 2.492516 -0.013362
v -0.034501 2.492516 -0.026565
v -0.031875 2.492516 -0.039768
v -0.024396 -0.659993 -0.050960
v -0.024396 2.492516 -0.050961
v -0.013203 -0.659993 -0.058439
v -0.013203 2.492516 -0.058439
v 0.000000 2.492516 -0.061066
v 0.013203 2.492516 -0.058439
v 0.024396 -0.659993 -0.050960
v 0.031875 2.492516 -0.039768
v 0.031875 -0.659993 -0.013362
v 0.031875 2.492516 -0.013362
v 0.013203 -0.659993 0.005310
v 0.013203 2.492516 0.005310
v 0.000000 2.492516 0.007936
v -0.024396 -0.659993 -0.002169
v -0.024396 2.492516 -0.002169
v -0.031875 -0.659993 -0.013362
v -0.034501 -0.659993 -0.026564
v -0.031875 -0.659993 -0.039767
v -0.094788 0.926259 0.039334
v -0.123538 0.957112 0.039334
v -0.094788 0.930381 0.041810
v -0.109144 0.930381 0.039334
v -0.108536 0.934385 0.041810
v -0.119697 0.941706 0.039334
v -0.119697 0.957112 0.041810
v -0.115966 0.942358 0.041810
v -0.094788 1.819330 0.039334
v -0.123538 1.788477 0.039334
v -0.109144 1.815208 0.039334
v -0.094788 1.815208 0.041810
v -0.108536 1.811204 0.041810
v -0.119697 1.788477 0.041810
v -0.119697 1.803883 0.039334
v -0.115966 1.803231 0.041810
v -0.094788 0.926259 0.011501
v -0.123538 0.957112 0.011501
v -0.109144 0.930381 0.011501
v -0.094788 0.930381 0.009024
v -0.108536 0.934385 0.009024
v -0.119697 0.957112 0.009024
v -0.119697 0.941706 0.011501
v -0.115966 0.942358 0.009024
v -0.094788 1.819330 0.011501
v -0.123538 1.788477 0.011501
v -0.094788 1.815208 0.009024
v -0.109144 1.815208 0.011501
v -0.108536 1.811204 0.009024
v -0.119697 1.803883 0.011501
v -0.119697 1.788477 0.009024
v -0.115966 1.803231 0.009024
v 0.094788 0.926259 0.039334
v 0.123538 0.957112 0.039334
v 0.109144 0.930381 0.039334
v 0.094788 0.930381 0.041810
v 0.108536 0.934385 0.041810
v 0.119697 0.957112 0.041810
v 0.119697 0.941706 0.039334
v 0.115966 0.942358 0.041810
v 0.094788 1.819330 0.039334
v 0.123538 1.788477 0.039334
v 0.094788 1.815208 0.041810
v 0.109144 1.815208 0.039334
v 0.108536 1.811204 0.041810
v 0.119697 1.803883 0.039334
v 0.119697 1.788477 0.041810
v 0.115966 1.803231 0.041810
v 0.094788 0.926259 0.011501
v 0.123538 0.957112 0.011501
v 0.094788 0.930381 0.009024
v 0.109144 0.930381 0.011501
v 0.108536 0.934385 0.009024
v 0.119697 0.941706 0.011501
v 0.119697 0.957112 0.009024
v 0.115966 0.942358 0.009024
v 0.094788 1.819330 0.011501
v 0.123538 1.788477 0.011501
v 0.109144 1.815208 0.011501
v 0.094788 1.815208 0.009024
v 0.108536 1.811204 0.009024
v 0.119697 1.788477 0.009024
v 0.119697 1.803883 0.011501
v 0.115966 1.803231 0.009024
vt 0.577908 0.737852
vt 0.312997 0.280312
vt 0.309937 0.264509
vt 0.312967 0.257099
vt 0.322079 0.248311
vt 0.337275 0.243021
vt 0.865973 0.242378
vt 0.881187 0.247626
vt 0.890324 0.256396
vt 0.893378 0.263800
vt 0.890354 0.279608
vt 0.626567 0.737798
vt 0.614413 0.753288
vt 0.602115 0.756007
vt 0.590086 0.753609
vt 0.014757 0.719274
vt 0.187371 0.719284
vt 0.192331 0.721008
vt 0.195294 0.723884
vt 0.196303 0.727889
vt 0.195316 0.733045
vt 0.108993 0.882496
vt 0.105024 0.885921
vt 0.101051 0.887082
vt 0.097092 0.885913
vt 0.093128 0.882482
vt 0.006837 0.733021
vt 0.005847 0.727873
vt 0.006814 0.723859
vt 0.009807 0.721000
vt 0.191225 0.066017
vt 0.183879 0.069060
vt 0.175928 0.069060
vt 0.168582 0.066017
vt 0.162959 0.060395
vt 0.159916 0.053049
vt 0.159916 0.045098
vt 0.162959 0.037752
vt 0.168582 0.032130
vt 0.175928 0.029087
vt 0.183879 0.029087
vt 0.191225 0.032130
vt 0.196847 0.037752
vt 0.199890 0.045098
vt 0.199890 0.053049
vt 0.196847 0.060395
vt 0.189506 0.702420
vt 0.115797 0.708362
vt 0.107237 0.702420
vt 0.888597 0.037964
vt 0.888597 0.168408
vt 0.871258 0.020824
vt 0.111073 0.512572
vt 0.115797 0.511682
vt 0.107237 0.517624
vt 0.180946 0.511682
vt 0.185671 0.512572
vt 0.188224 0.514344
vt 0.189506 0.517624
vt 0.188224 0.705699
vt 0.185671 0.707472
vt 0.180946 0.708362
vt 0.111073 0.707472
vt 0.108519 0.705700
vt 0.108519 0.514344
vt 0.886000 0.177868
vt 0.880828 0.182980
vt 0.871258 0.185547
vt 0.331989 0.185547
vt 0.322418 0.182980
vt 0.317247 0.177868
vt 0.314649 0.168408
vt 0.314649 0.037964
vt 0.317247 0.028504
vt 0.322418 0.023392
vt 0.331989 0.020824
vt 0.880828 0.023392
vt 0.886000 0.028504
vt 0.194065 0.727935
vt 0.195074 0.731939
vt 0.095887 0.890007
vt 0.099846 0.891175
vt 0.107789 0.886590
vt 0.194087 0.737096
vt 0.008602 0.725092
vt 0.005610 0.727953
vt 0.091924 0.886575
vt 0.013552 0.723367
vt 0.186142 0.723335
vt 0.191102 0.725059
vt 0.004642 0.731966
vt 0.005632 0.737114
vt 0.103819 0.890014
vt 0.152313 0.023504
vt 0.152313 0.482013
vt 0.144310 0.482079
vt 0.144310 0.023571
vt 0.136308 0.482145
vt 0.136308 0.023637
vt 0.128306 0.482212
vt 0.128306 0.023704
vt 0.120304 0.482278
vt 0.120304 0.023770
vt 0.112302 0.482345
vt 0.112302 0.023836
vt 0.104300 0.482411
vt 0.104300 0.023903
vt 0.096298 0.482478
vt 0.096298 0.023969
vt 0.088295 0.482544
vt 0.088295 0.024036
vt 0.080293 0.482610
vt 0.080293 0.024102
vt 0.072291 0.482677
vt 0.072291 0.024168
vt 0.064289 0.482743
vt 0.064289 0.024235
vt 0.056287 0.482809
vt 0.056287 0.024301
vt 0.048285 0.482876
vt 0.048285 0.024368
vt 0.040283 0.482942
vt 0.040283 0.024434
vt 0.032281 0.483009
vt 0.032281 0.024500
vt 0.024278 0.483075
vt 0.024278 0.024567
vt 0.058334 0.515943
vt 0.058334 0.693583
vt 0.049140 0.693583
vt 0.049140 0.515943
vt 0.067529 0.516104
vt 0.067529 0.555801
vt 0.058334 0.555801
vt 0.058334 0.516104
vt 0.039945 0.693583
vt 0.039945 0.515943
vt 0.049140 0.515943
vt 0.049140 0.693583
vt 0.311976 0.168408
vt 0.314649 0.178286
vt 0.331989 0.188190
vt 0.321995 0.185547
vt 0.891271 0.168408
vt 0.888597 0.178286
vt 0.881251 0.185547
vt 0.871258 0.188190
vt 0.180946 0.510765
vt 0.185879 0.511682
vt 0.189506 0.514199
vt 0.190826 0.517624
vt 0.180946 0.709278
vt 0.185879 0.708362
vt 0.190826 0.702420
vt 0.189506 0.705844
vt 0.311976 0.037964
vt 0.314649 0.028086
vt 0.321995 0.020824
vt 0.331989 0.018182
vt 0.891271 0.037964
vt 0.888597 0.028086
vt 0.871258 0.018182
vt 0.881251 0.020824
vt 0.115797 0.510765
vt 0.110864 0.511682
vt 0.105917 0.517624
vt 0.107237 0.514199
vt 0.115797 0.709278
vt 0.110864 0.708362
vt 0.107237 0.705844
vt 0.105917 0.702420
vt 0.058334 0.602207
vt 0.067529 0.602207
vt 0.067529 0.605274
vt 0.058334 0.605274
vt 0.049140 0.699294
vt 0.039945 0.699294
vt 0.039945 0.696875
vt 0.049140 0.696875
vt 0.067529 0.558632
vt 0.058334 0.558632
vt 0.039945 0.510231
vt 0.049140 0.510231
vt 0.049140 0.512651
vt 0.039945 0.512651
vt 0.067529 0.561700
vt 0.058334 0.561700
vt 0.058334 0.558632
vt 0.067529 0.558632
vt 0.049140 0.510231
vt 0.058334 0.510231
vt 0.058334 0.512651
vt 0.049140 0.512651
vt 0.058334 0.512923
vt 0.067529 0.512923
vt 0.058334 0.510231
vt 0.067529 0.510231
vt 0.058334 0.696875
vt 0.049140 0.696875
vn -0.0000 -0.0000 1.0000
vn 0.0000 0.0000 -1.0000
vn 0.0000 1.0000 -0.0000
vn 0.4771 0.8788 0.0000
vn 0.5225 -0.8526 0.0000
vn 0.8660 -0.5000 0.0000
vn 0.9370 0.3493 0.0000
vn 0.7641 0.6310 -0.1341
vn 0.8063 0.5905 0.0336
vn -0.9997 -0.0262 0.0000
vn -0.8660 -0.5000 0.0000
vn 0.1660 -0.9861 0.0000
vn -0.9370 0.3493 0.0000
vn -0.7710 0.6368 0.0000
vn -0.4771 0.8788 0.0000
vn -0.5225 -0.8526 0.0000
vn -0.1660 -0.9861 0.0000
vn 0.9997 -0.0262 0.0000
vn 0.3827 -0.0000 -0.9239
vn 0.7071 -0.0000 -0.7071
vn 0.9239 -0.0000 -0.3827
vn 1.0000 -0.0000 -0.0000
vn 0.9239 0.0000 0.3827
vn 0.7071 0.0000 0.7071
vn 0.3827 0.0000 0.9239
vn -0.3827 0.0000 0.9239
vn -0.7071 0.0000 0.7071
vn -0.9239 0.0000 0.3827
vn -1.0000 0.0000 -0.0000
vn -0.9239 -0.0000 -0.3827
vn -0.7071 -0.0000 -0.7071
vn -0.3827 -0.0000 -0.9239
vn 0.8800 -0.1060 -0.4630
vn 0.8800 0.1060 -0.4630
vn 0.8800 0.1060 0.4630
vn 0.8800 -0.1060 0.4630
vn 0.1202 0.8725 -0.4737
vn -0.1202 0.8725 -0.4737
vn -0.1202 0.8725 0.4737
vn 0.1202 0.8725 0.4737
vn -0.8800 -0.1060 0.4630
vn -0.8800 0.1060 0.4630
vn -0.8800 0.1060 -0.4630
vn -0.8800 -0.1060 -0.4630
vn -0.1202 -0.8725 0.4736
vn -0.0787 -0.5120 0.8554
vn -0.3308 -0.4607 0.8236
vn -0.4564 -0.7706 0.4448
vn -0.7951 -0.4193 0.4382
vn -0.4913 -0.3016 0.8171
vn -0.5391 -0.0714 0.8392
vn -0.4564 0.7706 0.4448
vn -0.3308 0.4607 0.8236
vn -0.0787 0.5120 0.8554
vn -0.7951 0.4193 0.4382
vn -0.4913 0.3016 0.8171
vn -0.5391 0.0714 0.8392
vn -0.1202 -0.8725 -0.4737
vn -0.4564 -0.7706 -0.4448
vn -0.3308 -0.4607 -0.8236
vn -0.0787 -0.5120 -0.8554
vn -0.7951 -0.4193 -0.4382
vn -0.4913 -0.3016 -0.8171
vn -0.5391 -0.0714 -0.8392
vn -0.0787 0.5120 -0.8554
vn -0.3308 0.4607 -0.8236
vn -0.4564 0.7706 -0.4448
vn -0.7951 0.4193 -0.4382
vn -0.4913 0.3016 -0.8171
vn -0.5391 0.0714 -0.8392
vn 0.1202 -0.8725 0.4737
vn 0.4564 -0.7706 0.4448
vn 0.3308 -0.4607 0.8236
vn 0.0787 -0.5120 0.8554
vn 0.7951 -0.4193 0.4382
vn 0.4913 -0.3016 0.8171
vn 0.5391 -0.0714 0.8392
vn 0.0787 0.5120 0.8554
vn 0.3308 0.4607 0.8236
vn 0.4564 0.7706 0.4448
vn 0.7951 0.4193 0.4382
vn 0.4913 0.3016 0.8171
vn 0.5391 0.0714 0.8392
vn 0.1202 -0.8725 -0.4737
vn 0.0787 -0.5120 -0.8554
vn 0.3308 -0.4607 -0.8236
vn 0.4564 -0.7706 -0.4448
vn 0.7951 -0.4193 -0.4382
vn 0.4913 -0.3016 -0.8171
vn 0.5391 -0.0714 -0.8392
vn 0.4564 0.7706 -0.4448
vn 0.3308 0.4607 -0.8236
vn 0.0787 0.5120 -0.8554
vn 0.7951 0.4193 -0.4382
vn 0.4913 0.3016 -0.8171
vn 0.5391 0.0714 -0.8392
usemtl Road_Sign_(Warning_Crossing)
s off
f 7/1/1 6/2/1 27/3/1 5/4/1 26/5/1 4/6/1 3/7/1 2/8/1 23/9/1 1/10/1 17/11/1 19/12/1 20/13/1 21/14/1 22/15/1
f 30/16/2 14/17/2 13/18/2 12/19/2 11/20/2 16/21/2 10/22/2 9/23/2 24/24/2 25/25/2 8/26/2 18/27/2 15/28/2 28/29/2 29/30/2
f 50/31/3 49/32/3 48/33/3 46/34/3 44/35/3 43/36/3 42/37/3 59/38/3 41/39/3 57/40/3 56/41/3 38/42/3 54/43/3 36/44/3 52/45/3 33/46/3
f 93/47/2 122/48/2 124/49/2
f 105/50/1 74/51/1 109/52/1
f 115/53/2 113/54/2 117/55/2
f 113/54/2 82/56/2 117/55/2
f 82/56/2 83/57/2 86/58/2
f 86/58/2 84/59/2 82/56/2
f 84/59/2 93/47/2 117/55/2
f 93/47/2 94/60/2 91/61/2
f 91/61/2 89/62/2 93/47/2
f 89/62/2 122/48/2 93/47/2
f 122/48/2 123/63/2 126/64/2
f 126/64/2 124/49/2 122/48/2
f 124/49/2 117/55/2 93/47/2
f 117/55/2 118/65/2 115/53/2
f 117/55/2 82/56/2 84/59/2
f 74/51/1 75/66/1 78/67/1
f 78/67/1 76/68/1 74/51/1
f 76/68/1 69/69/1 109/52/1
f 74/51/1 76/68/1 109/52/1
f 69/69/1 70/70/1 67/71/1
f 67/71/1 65/72/1 69/69/1
f 65/72/1 98/73/1 69/69/1
f 98/73/1 99/74/1 102/75/1
f 102/75/1 100/76/1 98/73/1
f 100/76/1 109/52/1 69/69/1
f 98/73/1 100/76/1 69/69/1
f 109/52/1 110/77/1 107/78/1
f 107/78/1 105/50/1 109/52/1
s 1
f 12/19/3 21/79/3 20/80/4 11/20/4
f 2/81/5 25/25/5 24/24/6 23/82/6
f 17/83/7 10/22/7 16/21/8 19/84/9
f 27/85/10 29/30/10 28/29/11 5/86/11
f 3/87/12 8/26/12 25/25/5 2/81/5
f 30/16/13 6/88/13 7/89/14 14/17/14
f 14/17/14 7/89/14 22/90/15 13/18/15
f 11/20/4 20/80/4 19/84/9 16/21/8
f 26/91/16 15/28/16 18/27/17 4/92/17
f 5/86/11 28/29/11 15/28/16 26/91/16
f 6/88/13 30/16/13 29/30/10 27/85/10
f 3/87/12 4/92/17 18/27/17 8/26/12
f 23/82/6 24/24/6 9/23/18 1/93/18
f 13/18/15 22/90/15 21/79/3 12/19/3
f 1/93/18 9/23/18 10/22/7 17/83/7
f 31/94/2 49/95/2 50/96/19 32/97/19
f 32/97/19 50/96/19 33/98/20 51/99/20
f 51/99/20 33/98/20 52/100/21 34/101/21
f 34/101/21 52/100/21 36/102/22 35/103/22
f 35/103/22 36/102/22 54/104/23 53/105/23
f 53/105/23 54/104/23 38/106/24 37/107/24
f 37/107/24 38/106/24 56/108/25 55/109/25
f 55/109/25 56/108/25 57/110/1 39/111/1
f 39/111/1 57/110/1 41/112/26 40/113/26
f 40/113/26 41/112/26 59/114/27 58/115/27
f 58/115/27 59/114/27 42/116/28 60/117/28
f 60/117/28 42/116/28 43/118/29 61/119/29
f 61/119/29 43/118/29 44/120/30 62/121/30
f 62/121/30 44/120/30 46/122/31 45/123/31
f 45/123/31 46/122/31 48/124/32 47/125/32
f 47/125/32 48/124/32 49/126/2 31/127/2
f 112/128/33 120/129/34 104/130/35 96/131/36
f 119/132/37 87/133/38 71/134/39 103/135/40
f 64/136/41 72/137/42 88/138/43 80/139/44
f 63/140/45 65/72/46 67/71/47 66/141/48
f 64/142/41 68/143/49 70/70/50 69/69/51
f 68/143/49 66/141/48 67/71/47 70/70/50
f 71/144/39 73/145/52 75/66/53 74/51/54
f 73/145/52 77/146/55 78/67/56 75/66/53
f 72/147/42 76/68/57 78/67/56 77/146/55
f 79/148/58 81/149/59 83/57/60 82/56/61
f 81/149/59 85/150/62 86/58/63 83/57/60
f 80/151/44 84/59/64 86/58/63 85/150/62
f 87/152/38 89/62/65 91/61/66 90/153/67
f 88/154/43 92/155/68 94/60/69 93/47/70
f 92/155/68 90/153/67 91/61/66 94/60/69
f 95/156/71 97/157/72 99/74/73 98/73/74
f 97/157/72 101/158/75 102/75/76 99/74/73
f 96/159/36 100/76/77 102/75/76 101/158/75
f 103/160/40 105/50/78 107/78/79 106/161/80
f 104/162/35 108/163/81 110/77/82 109/52/83
f 108/163/81 106/161/80 107/78/79 110/77/82
f 111/164/84 113/54/85 115/53/86 114/165/87
f 112/166/33 116/167/88 118/65/89 117/55/90
f 116/167/88 114/165/87 115/53/86 118/65/89
f 119/168/37 121/169/91 123/63/92 122/48/93
f 121/169/91 125/170/94 126/64/95 123/63/92
f 120/171/34 124/49/96 126/64/95 125/170/94
f 79/172/58 63/173/45 66/174/48 81/175/59
f 81/176/59 66/177/48 68/178/49 85/179/62
f 85/179/62 68/178/49 64/136/41 80/139/44
f 69/69/51 76/68/57 72/147/42 64/142/41
f 71/134/39 87/133/38 90/180/67 73/181/52
f 73/182/52 90/183/67 92/184/68 77/185/55
f 77/185/55 92/184/68 88/138/43 72/137/42
f 93/47/70 84/59/64 80/151/44 88/154/43
f 111/164/84 79/148/58 82/56/61 113/54/85
f 87/152/38 119/168/37 122/48/93 89/62/65
f 120/171/34 112/166/33 117/55/90 124/49/96
f 95/186/71 111/187/84 114/188/87 97/189/72
f 97/190/72 114/191/87 116/192/88 101/193/75
f 101/193/75 116/192/88 112/128/33 96/131/36
f 119/132/37 103/135/40 106/194/80 121/195/91
f 121/195/91 106/194/80 108/196/81 125/197/94
f 125/198/94 108/199/81 104/130/35 120/129/34
f 109/52/83 100/76/77 96/159/36 104/162/35
f 63/140/45 95/156/71 98/73/74 65/72/46
f 103/160/40 71/144/39 74/51/54 105/50/78
f 79/172/58 111/187/84 95/186/71 63/173/45
