# Blender v2.79 (sub 7) OBJ File: 'de_road_signs.blend'
# www.blender.org
mtllib de_warning_road_sign.mtl
o warning_de_warning_road_sign
v 0.399679 2.237207 0.021711
v 0.383013 2.208340 0.021711
v 0.362179 2.201123 0.021711
v -0.362179 2.201123 0.021711
v -0.395513 2.220368 0.021711
v -0.395513 2.258858 0.021711
v -0.033333 2.886171 0.021711
v 0.362179 2.201123 0.007961
v 0.399679 2.237207 0.007961
v 0.395513 2.258858 0.007961
v 0.016667 2.900605 0.007961
v 0.000000 2.905416 0.007961
v -0.016667 2.900605 0.007961
v -0.033333 2.886171 0.007961
v -0.383013 2.208340 0.007961
v 0.033333 2.886171 0.007961
v 0.395513 2.258858 0.021711
v -0.362179 2.201123 0.007961
v 0.033333 2.886171 0.021711
v 0.016667 2.900605 0.021711
v 0.000000 2.905416 0.021711
v -0.016667 2.900605 0.021711
v 0.395513 2.220368 0.021711
v 0.395513 2.220368 0.007961
v 0.383013 2.208340 0.007961
v -0.383013 2.208340 0.021711
v -0.399679 2.237207 0.021711
v -0.395513 2.220368 0.007961
v -0.399679 2.237207 0.007961
v -0.395513 2.258858 0.007961
v 0.000000 -0.500000 -0.061065
v 0.013203 -0.500000 -0.058439
v 0.024396 2.608541 -0.050961
v 0.031875 -0.500000 -0.039767
v 0.034501 -0.500000 -0.026564
v 0.034501 2.608541 -0.026565
v 0.024396 -0.500000 -0.002169
v 0.024396 2.608541 -0.002169
v 0.000000 -0.500000 0.007936
v -0.013203 -0.500000 0.005310
v -0.013203 2.608541 0.005310
v -0.031875 2.608541 -0.013362
v -0.034501 2.608541 -0.026565
v -0.031875 2.608541 -0.039768
v -0.024396 -0.500000 -0.050960
v -0.024396 2.608541 -0.050961
v -0.013203 -0.500000 -0.058439
v -0.013203 2.608541 -0.058439
v 0.000000 2.608541 -0.061066
v 0.013203 2.608541 -0.058439
v 0.024396 -0.500000 -0.050960
v 0.031875 2.608541 -0.039768
v 0.031875 -0.500000 -0.013362
v 0.031875 2.608541 -0.013362
v 0.013203 -0.500000 0.005310
v 0.013203 2.608541 0.005310
v 0.000000 2.608541 0.007936
v -0.024396 -0.500000 -0.002169
v -0.024396 2.608541 -0.002169
v -0.031875 -0.500000 -0.013362
v -0.034501 -0.500000 -0.026564
v -0.031875 -0.500000 -0.039767
vt 0.577488 0.742285
vt 0.314181 0.286582
vt 0.308039 0.270852
vt 0.310289 0.257344
vt 0.319524 0.246196
vt 0.338391 0.243495
vt 0.864750 0.243476
vt 0.884496 0.246211
vt 0.893451 0.257329
vt 0.894600 0.270859
vt 0.888208 0.286394
vt 0.625157 0.742269
vt 0.613042 0.754595
vt 0.601714 0.757029
vt 0.589700 0.754312
vt 0.181802 0.982401
vt 0.044652 0.896693
vt 0.041496 0.892749
vt 0.040444 0.888805
vt 0.041496 0.884860
vt 0.044652 0.880916
vt 0.181801 0.795208
vt 0.186535 0.794222
vt 0.190217 0.795208
vt 0.192846 0.798166
vt 0.194424 0.803096
vt 0.194424 0.974513
vt 0.192846 0.979443
vt 0.190217 0.982401
vt 0.186535 0.983387
vt 0.183842 0.066017
vt 0.176497 0.069060
vt 0.168545 0.069060
vt 0.161199 0.066017
vt 0.155577 0.060395
vt 0.152534 0.053049
vt 0.152534 0.045098
vt 0.155577 0.037752
vt 0.161199 0.032130
vt 0.168545 0.029087
vt 0.176497 0.029087
vt 0.183842 0.032130
vt 0.189465 0.037752
vt 0.192508 0.045098
vt 0.192508 0.053049
vt 0.189465 0.060395
vt 0.010385 0.539123
vt 0.029175 0.539123
vt 0.029175 0.551942
vt 0.010385 0.551942
vt 0.047964 0.566450
vt 0.029175 0.566450
vt 0.029175 0.555322
vt 0.047964 0.555322
vt 0.029175 0.936825
vt 0.010385 0.936825
vt 0.010385 0.566450
vt 0.029175 0.566450
vt 0.187052 0.510948
vt 0.178467 0.510948
vt 0.178467 0.506724
vt 0.187052 0.506724
vt 0.195638 0.512426
vt 0.187052 0.512426
vt 0.187052 0.506724
vt 0.195638 0.506724
vt 0.178467 0.517988
vt 0.187052 0.517988
vt 0.187052 0.762758
vt 0.178467 0.762758
vt 0.187052 0.769798
vt 0.178467 0.769798
vt 0.195638 0.748456
vt 0.187052 0.748456
vt 0.187052 0.741010
vt 0.195638 0.741010
vt 0.195638 0.753854
vt 0.187052 0.753854
vt 0.029175 0.542504
vt 0.047964 0.542504
vt 0.010385 0.527995
vt 0.029175 0.527995
vt 0.029175 0.527995
vt 0.047964 0.527995
vt 0.139393 0.007509
vt 0.139393 0.466018
vt 0.131391 0.466084
vt 0.131391 0.007576
vt 0.123389 0.466150
vt 0.123389 0.007642
vt 0.115387 0.466217
vt 0.115387 0.007708
vt 0.107385 0.466283
vt 0.107385 0.007775
vt 0.099383 0.466350
vt 0.099383 0.007841
vt 0.091381 0.466416
vt 0.091381 0.007908
vt 0.083379 0.466483
vt 0.083378 0.007974
vt 0.075376 0.466549
vt 0.075376 0.008040
vt 0.067374 0.466615
vt 0.067374 0.008107
vt 0.059372 0.466682
vt 0.059372 0.008173
vt 0.051370 0.466748
vt 0.051370 0.008240
vt 0.043368 0.466814
vt 0.043368 0.008306
vt 0.035366 0.466881
vt 0.035366 0.008373
vt 0.027364 0.466947
vt 0.027364 0.008439
vt 0.019361 0.467014
vt 0.019361 0.008505
vt 0.011359 0.467080
vt 0.011359 0.008572
vn -0.0000 -0.0000 1.0000
vn 0.0000 0.0000 -1.0000
vn 0.0000 1.0000 -0.0000
vn 0.4771 0.8788 0.0000
vn 0.5225 -0.8526 0.0000
vn 0.8660 -0.5000 0.0000
vn 0.9370 0.3493 0.0000
vn 0.7641 0.6310 -0.1341
vn 0.8063 0.5905 0.0336
vn -0.9997 -0.0262 0.0000
vn -0.8660 -0.5000 0.0000
vn 0.1660 -0.9861 0.0000
vn -0.9370 0.3493 0.0000
vn -0.7710 0.6368 0.0000
vn -0.4771 0.8788 0.0000
vn -0.5225 -0.8526 0.0000
vn -0.1660 -0.9861 0.0000
vn 0.9997 -0.0262 0.0000
vn 0.3827 -0.0000 -0.9239
vn 0.7071 -0.0000 -0.7071
vn 0.9239 -0.0000 -0.3827
vn 1.0000 -0.0000 -0.0000
vn 0.9239 0.0000 0.3827
vn 0.7071 0.0000 0.7071
vn 0.3827 0.0000 0.9239
vn -0.3827 0.0000 0.9239
vn -0.7071 0.0000 0.7071
vn -0.9239 0.0000 0.3827
vn -1.0000 0.0000 -0.0000
vn -0.9239 -0.0000 -0.3827
vn -0.7071 -0.0000 -0.7071
vn -0.3827 -0.0000 -0.9239
usemtl Road_Sign_(Warning)
s off
f 7/1/1 6/2/1 27/3/1 5/4/1 26/5/1 4/6/1 3/7/1 2/8/1 23/9/1 1/10/1 17/11/1 19/12/1 20/13/1 21/14/1 22/15/1
f 30/16/2 14/17/2 13/18/2 12/19/2 11/20/2 16/21/2 10/22/2 9/23/2 24/24/2 25/25/2 8/26/2 18/27/2 15/28/2 28/29/2 29/30/2
f 50/31/3 49/32/3 48/33/3 46/34/3 44/35/3 43/36/3 42/37/3 59/38/3 41/39/3 57/40/3 56/41/3 38/42/3 54/43/3 36/44/3 52/45/3 33/46/3
s 1
f 12/47/3 21/48/3 20/49/4 11/50/4
f 2/51/5 25/52/5 24/53/6 23/54/6
f 17/55/7 10/56/7 16/57/8 19/58/9
f 27/59/10 29/60/10 28/61/11 5/62/11
f 3/63/12 8/64/12 25/65/5 2/66/5
f 30/67/13 6/68/13 7/69/14 14/70/14
f 14/70/14 7/69/14 22/71/15 13/72/15
f 11/50/4 20/49/4 19/58/9 16/57/8
f 26/73/16 15/74/16 18/75/17 4/76/17
f 5/77/11 28/78/11 15/74/16 26/73/16
f 6/68/13 30/67/13 29/60/10 27/59/10
f 3/63/12 4/76/17 18/75/17 8/64/12
f 23/54/6 24/53/6 9/79/18 1/80/18
f 13/81/15 22/82/15 21/48/3 12/47/3
f 1/80/18 9/79/18 10/83/7 17/84/7
f 31/85/2 49/86/2 50/87/19 32/88/19
f 32/88/19 50/87/19 33/89/20 51/90/20
f 51/90/20 33/89/20 52/91/21 34/92/21
f 34/92/21 52/91/21 36/93/22 35/94/22
f 35/94/22 36/93/22 54/95/23 53/96/23
f 53/96/23 54/95/23 38/97/24 37/98/24
f 37/98/24 38/97/24 56/99/25 55/100/25
f 55/100/25 56/99/25 57/101/1 39/102/1
f 39/102/1 57/101/1 41/103/26 40/104/26
f 40/104/26 41/103/26 59/105/27 58/106/27
f 58/106/27 59/105/27 42/107/28 60/108/28
f 60/108/28 42/107/28 43/109/29 61/110/29
f 61/110/29 43/109/29 44/111/30 62/112/30
f 62/112/30 44/111/30 46/113/31 45/114/31
f 45/114/31 46/113/31 48/115/32 47/116/32
f 47/116/32 48/115/32 49/117/2 31/118/2
