# Blender v2.79 (sub 7) OBJ File: 'de_road_signs.blend'
# www.blender.org
mtllib de_yield_road_sign_LOD.mtl
o yield_lod_de_yield_road_sign_LOD
v -0.383013 2.895158 0.021636
v 0.383013 2.895157 0.021636
v 0.399679 2.866291 0.021636
v 0.016667 2.202893 0.021636
v -0.016667 2.202893 0.007886
v -0.016667 2.202893 0.021636
v 0.016667 2.202893 0.007886
v -0.399679 2.866291 0.021636
v -0.399679 2.866291 0.007886
v -0.383013 2.895158 0.007886
v 0.383013 2.895157 0.007886
v 0.399679 2.866291 0.007886
v -0.000024 -0.500000 -0.060540
v -0.000000 2.700000 -0.060540
v 0.029125 -0.500000 -0.043448
v 0.029149 2.700000 -0.043448
v 0.029125 -0.500000 -0.009265
v 0.029149 2.700000 -0.009265
v -0.000024 -0.500000 0.007827
v -0.000000 2.700000 0.007827
v -0.029172 -0.500000 -0.009265
v -0.029149 2.700000 -0.009265
v -0.029172 -0.500000 -0.043448
v -0.029149 2.700000 -0.043448
vt 0.319565 0.757587
vt 0.304937 0.729635
vt 0.584018 0.242643
vt 0.612665 0.242797
vt 0.893604 0.729199
vt 0.876371 0.757672
vt 0.164611 0.840636
vt 0.017030 0.840629
vt 0.013818 0.835066
vt 0.087623 0.707288
vt 0.094036 0.707294
vt 0.167813 0.835078
vt 0.095010 0.703984
vt 0.168787 0.831769
vt 0.088597 0.703979
vt 0.014812 0.831790
vt 0.165585 0.837326
vt 0.018024 0.837354
vt 0.158475 0.013140
vt 0.181124 0.051766
vt 0.158475 0.090392
vt 0.113178 0.090392
vt 0.090530 0.051766
vt 0.113178 0.013140
vt 0.044027 0.001486
vt 0.043859 0.488171
vt 0.035364 0.488216
vt 0.035532 0.001530
vt 0.026870 0.488259
vt 0.027038 0.001574
vt 0.018376 0.488303
vt 0.018544 0.001618
vt 0.069510 0.001354
vt 0.069342 0.488039
vt 0.060847 0.488084
vt 0.061015 0.001398
vt 0.052353 0.488127
vt 0.052521 0.001442
vn -0.0000 -0.0000 1.0000
vn 0.0000 0.0000 -1.0000
vn -0.0751 -0.0052 -0.9972
vn 0.5000 0.8660 0.0000
vn -0.5000 0.8660 0.0000
vn -1.0000 -0.0000 0.0000
vn -0.5000 -0.8660 0.0000
vn -0.5359 -0.8441 0.0187
vn 1.0000 0.0000 0.0000
vn 0.5000 -0.8660 0.0000
vn 0.0000 1.0000 0.0000
vn 0.8677 -0.0000 -0.4971
vn 0.8677 -0.0000 0.4971
vn -0.8677 0.0000 0.4971
vn -0.8677 0.0000 -0.4971
usemtl Road_Sign_LOD_(Give_Way)
s off
f 1/1/1 8/2/1 6/3/1 4/4/1 3/5/1 2/6/1
f 12/7/2 7/8/2 5/9/3 9/10/2 10/11/2 11/12/2
s 1
f 11/12/4 10/11/5 1/13/5 2/14/4
f 8/15/6 9/10/6 5/9/7 6/16/8
f 3/17/9 12/7/9 11/12/4 2/14/4
f 7/8/10 4/18/10 6/16/8 5/9/7
f 9/10/6 8/15/6 1/13/5 10/11/5
f 3/17/9 4/18/10 7/8/10 12/7/9
usemtl Road_Sign_LOD_(Information)
s off
f 16/19/11 14/20/11 24/21/11 22/22/11 20/23/11 18/24/11
s 1
f 13/25/2 14/26/2 16/27/12 15/28/12
f 15/28/12 16/27/12 18/29/13 17/30/13
f 17/30/13 18/29/13 20/31/1 19/32/1
f 19/33/1 20/34/1 22/35/14 21/36/14
f 21/36/14 22/35/14 24/37/15 23/38/15
f 23/38/15 24/37/15 14/26/2 13/25/2
