# Blender v2.79 (sub 7) OBJ File: 'de_road_signs.blend'
# www.blender.org
mtllib de_yield_road_sign.mtl
o yield_de_yield_road_sign
v 0.362179 2.902374 0.021636
v 0.016667 2.202893 0.021636
v -0.033333 2.217326 0.021636
v -0.395513 2.844640 0.021636
v -0.000000 2.198081 0.021636
v 0.033333 2.217326 0.021636
v 0.399679 2.866291 0.021636
v -0.399679 2.866291 0.021636
v -0.395513 2.883131 0.021636
v 0.383013 2.895157 0.021636
v -0.016667 2.202893 0.021636
v -0.362179 2.902375 0.021636
v 0.395513 2.844639 0.021636
v 0.395513 2.883131 0.021636
v -0.385194 2.892977 0.021636
v 0.399679 2.866291 0.007904
v 0.395513 2.844639 0.007904
v -0.399679 2.866291 0.007904
v -0.395513 2.883131 0.007904
v 0.395513 2.883131 0.007904
v 0.362179 2.902374 0.007904
v 0.383013 2.895157 0.007904
v -0.395513 2.844640 0.007904
v 0.016667 2.202893 0.007904
v 0.033333 2.217326 0.007904
v -0.385194 2.892977 0.007904
v -0.033333 2.217326 0.007904
v -0.016667 2.202893 0.007904
v -0.362179 2.902375 0.007904
v -0.000000 2.198081 0.007904
v 0.000000 -0.500000 -0.061065
v 0.013203 -0.500000 -0.058439
v 0.024396 2.700002 -0.050961
v 0.031875 -0.500000 -0.039767
v 0.034501 -0.500000 -0.026564
v 0.034501 2.700002 -0.026565
v 0.024396 -0.500000 -0.002169
v 0.024396 2.700002 -0.002169
v 0.000000 -0.500000 0.007936
v -0.013203 -0.500000 0.005310
v -0.013203 2.700002 0.005310
v -0.031875 2.700002 -0.013362
v -0.034501 2.700002 -0.026565
v -0.031875 2.700002 -0.039768
v -0.024396 -0.500000 -0.050960
v -0.024396 2.700002 -0.050961
v -0.013203 -0.500000 -0.058439
v -0.013203 2.700002 -0.058439
v 0.000000 2.700002 -0.061066
v 0.013203 2.700002 -0.058439
v 0.024396 -0.500000 -0.050960
v 0.031875 2.700002 -0.039768
v 0.031875 -0.500000 -0.013362
v 0.031875 2.700002 -0.013362
v 0.013203 -0.500000 0.005310
v 0.013203 2.700002 0.005310
v 0.000000 2.700002 0.007936
v -0.024396 -0.500000 -0.002169
v -0.024396 2.700002 -0.002169
v -0.031875 -0.500000 -0.013362
v -0.034501 -0.500000 -0.026564
v -0.031875 -0.500000 -0.039767
vt 0.878943 0.754513
vt 0.890004 0.743708
vt 0.893606 0.729053
vt 0.886705 0.712642
vt 0.625569 0.260478
vt 0.612799 0.245695
vt 0.600186 0.242456
vt 0.586899 0.247982
vt 0.578175 0.260267
vt 0.316563 0.712110
vt 0.309031 0.730720
vt 0.311834 0.742569
vt 0.320576 0.753185
vt 0.340539 0.757537
vt 0.862654 0.757316
vt 0.204129 0.981268
vt 0.203242 0.974264
vt 0.111287 0.796272
vt 0.107079 0.792189
vt 0.102888 0.790844
vt 0.098713 0.792238
vt 0.094554 0.796370
vt 0.004698 0.975431
vt 0.003689 0.981599
vt 0.004763 0.986385
vt 0.007921 0.989790
vt 0.013161 0.991813
vt 0.194972 0.990744
vt 0.200189 0.988659
vt 0.203306 0.985218
vt 0.183842 0.066017
vt 0.176497 0.069060
vt 0.168545 0.069060
vt 0.161199 0.066017
vt 0.155577 0.060395
vt 0.152534 0.053049
vt 0.152534 0.045098
vt 0.155577 0.037752
vt 0.161199 0.032130
vt 0.168545 0.029087
vt 0.176497 0.029087
vt 0.183842 0.032130
vt 0.189465 0.037752
vt 0.192508 0.045098
vt 0.192508 0.053049
vt 0.189465 0.060395
vt 0.011200 0.520670
vt 0.013459 0.523514
vt 0.018052 0.521580
vt 0.017043 0.518127
vt 0.007924 0.535301
vt 0.011214 0.534332
vt 0.010299 0.528890
vt 0.006851 0.528690
vt 0.198235 0.530243
vt 0.194304 0.530856
vt 0.193768 0.536153
vt 0.197481 0.537032
vt 0.192608 0.520445
vt 0.190350 0.523725
vt 0.193150 0.526842
vt 0.196534 0.524728
vt 0.010921 0.526008
vt 0.007798 0.524594
vt 0.108238 0.689613
vt 0.105656 0.686973
vt 0.101180 0.689916
vt 0.102748 0.693571
vt 0.185888 0.517681
vt 0.184867 0.521267
vt 0.096967 0.690733
vt 0.097009 0.694925
vt 0.084769 0.688226
vt 0.087580 0.685322
vt 0.090842 0.693556
vt 0.092715 0.689539
vt 0.139393 0.007509
vt 0.139393 0.466018
vt 0.131391 0.466084
vt 0.131391 0.007576
vt 0.123389 0.466150
vt 0.123389 0.007642
vt 0.115387 0.466217
vt 0.115387 0.007708
vt 0.107385 0.466283
vt 0.107385 0.007775
vt 0.099383 0.466350
vt 0.099383 0.007841
vt 0.091381 0.466416
vt 0.091381 0.007908
vt 0.083379 0.466483
vt 0.083378 0.007974
vt 0.075376 0.466549
vt 0.075376 0.008040
vt 0.067374 0.466615
vt 0.067374 0.008107
vt 0.059372 0.466682
vt 0.059372 0.008173
vt 0.051370 0.466748
vt 0.051370 0.008240
vt 0.043368 0.466814
vt 0.043368 0.008306
vt 0.035366 0.466881
vt 0.035366 0.008373
vt 0.027364 0.466947
vt 0.027364 0.008439
vt 0.019361 0.467014
vt 0.019361 0.008505
vt 0.011359 0.467080
vt 0.011359 0.008572
vn -0.0000 -0.0000 1.0000
vn -0.0052 -0.0751 0.9972
vn 0.0000 0.0000 -1.0000
vn -0.0747 0.0091 -0.9972
vn 0.0000 1.0000 0.0000
vn -0.9997 0.0262 0.0000
vn -0.9370 -0.3493 0.0000
vn -0.1926 0.9813 0.0000
vn -0.5437 0.8393 0.0000
vn 0.4771 -0.8788 0.0000
vn 0.7710 -0.6368 0.0000
vn -0.4771 -0.8788 0.0000
vn -0.0000 -1.0000 0.0000
vn -0.8650 0.5018 0.0000
vn 0.9370 -0.3493 0.0000
vn 0.9997 0.0262 0.0000
vn -0.8029 -0.5931 0.0599
vn -0.7342 -0.6763 -0.0599
vn 0.8660 0.5000 0.0000
vn 0.1660 0.9861 0.0000
vn 0.5225 0.8526 0.0000
vn 0.3827 -0.0000 -0.9239
vn 0.7071 -0.0000 -0.7071
vn 0.9239 -0.0000 -0.3827
vn 1.0000 -0.0000 0.0000
vn 0.9239 0.0000 0.3827
vn 0.7071 0.0000 0.7071
vn 0.3827 0.0000 0.9239
vn -0.3827 0.0000 0.9239
vn -0.7071 0.0000 0.7071
vn -0.9239 0.0000 0.3827
vn -1.0000 0.0000 -0.0000
vn -0.9239 -0.0000 -0.3827
vn -0.7071 -0.0000 -0.7071
vn -0.3827 -0.0000 -0.9239
usemtl Road_Sign_(Give_Way)
s off
f 15/1/1 9/2/1 8/3/1 4/4/1 3/5/2 11/6/1 5/7/1 2/8/1 6/9/1 13/10/1 7/11/1 14/12/1 10/13/1 1/14/1 12/15/1
f 26/16/3 29/17/3 21/18/3 22/19/3 20/20/3 16/21/3 17/22/3 25/23/3 24/24/3 30/25/3 28/26/3 27/27/4 23/28/3 18/29/3 19/30/3
f 50/31/5 49/32/5 48/33/5 46/34/5 44/35/5 43/36/5 42/37/5 59/38/5 41/39/5 57/40/5 56/41/5 38/42/5 54/43/5 36/44/5 52/45/5 33/46/5
s 1
f 8/47/6 18/48/6 23/49/7 4/50/7
f 12/51/8 29/52/8 26/53/9 15/54/9
f 2/55/10 24/56/10 25/57/11 6/58/11
f 11/59/12 28/60/12 30/61/13 5/62/13
f 15/54/9 26/53/9 19/63/14 9/64/14
f 13/65/15 17/66/15 16/67/16 7/68/16
f 6/58/11 25/57/11 17/66/15 13/65/15
f 9/64/14 19/63/14 18/48/6 8/47/6
f 3/69/17 27/70/18 28/60/12 11/59/12
f 7/68/16 16/67/16 20/71/19 14/72/19
f 1/73/20 21/74/20 29/52/8 12/51/8
f 10/75/21 22/76/21 21/74/20 1/73/20
f 5/62/13 30/61/13 24/56/10 2/55/10
f 14/72/19 20/71/19 22/76/21 10/75/21
f 4/50/7 23/49/7 27/70/18 3/69/17
f 31/77/3 49/78/3 50/79/22 32/80/22
f 32/80/22 50/79/22 33/81/23 51/82/23
f 51/82/23 33/81/23 52/83/24 34/84/24
f 34/84/24 52/83/24 36/85/25 35/86/25
f 35/86/25 36/85/25 54/87/26 53/88/26
f 53/88/26 54/87/26 38/89/27 37/90/27
f 37/90/27 38/89/27 56/91/28 55/92/28
f 55/92/28 56/91/28 57/93/1 39/94/1
f 39/94/1 57/93/1 41/95/29 40/96/29
f 40/96/29 41/95/29 59/97/30 58/98/30
f 58/98/30 59/97/30 42/99/31 60/100/31
f 60/100/31 42/99/31 43/101/32 61/102/32
f 61/102/32 43/101/32 44/103/33 62/104/33
f 62/104/33 44/103/33 46/105/34 45/106/34
f 45/106/34 46/105/34 48/107/35 47/108/35
f 47/108/35 48/107/35 49/109/3 31/110/3
